<?xml version="1.0" standalone="no"?>
<!DOCTYPE svg PUBLIC "-//W3C//DTD SVG 1.1//EN" "http://www.w3.org/Graphics/SVG/1.1/DTD/svg11.dtd" >
<svg xmlns="http://www.w3.org/2000/svg">
<metadata>
This is a custom SVG webfont generated by Font Squirrel.
Copyright   : 1995 AlbertJan Pool published by Fontshop International for the FontFont library
</metadata>
<defs>
<font id="AdiHausPSMd" horiz-adv-x="1091" >
<font-face units-per-em="2048" ascent="1638" descent="-410" />
<missing-glyph horiz-adv-x="491" />
<glyph unicode=" "  horiz-adv-x="491" />
<glyph unicode="&#x09;" horiz-adv-x="491" />
<glyph unicode="&#xa0;" horiz-adv-x="491" />
<glyph unicode="!" horiz-adv-x="679" d="M248 1458h254l-45 -1024h-164zM260 0v223h229v-223h-229z" />
<glyph unicode="&#x22;" horiz-adv-x="909" d="M160 1067v391h207v-391h-207zM543 1067v391h207v-391h-207z" />
<glyph unicode="#" horiz-adv-x="1376" d="M139 426v192h193l41 254h-166v193h194l64 401h219l-63 -401h278l64 401h217l-64 -401h160v-193h-189l-40 -254h161v-192h-192l-68 -426h-217l68 426h-281l-65 -426h-220l68 426h-162zM549 618h280l39 254h-278z" />
<glyph unicode="$" horiz-adv-x="1245" d="M61 180l148 146q74 -74 157 -105t181 -35v455l-53 6q-88 10 -159 43t-116 74q-109 102 -108 278q0 176 109.5 291t307.5 133v185h168v-183q123 -8 215.5 -47t175.5 -116l-141 -140q-53 51 -121.5 78t-146.5 33v-442l70 -11q102 -16 163.5 -41.5t108.5 -66.5 q59 -53 89 -129t30 -170q0 -92 -32 -166t-90.5 -127t-140 -87t-180.5 -42v-227h-168v221q-147 6 -258 50t-209 142zM326 1051q0 -41 13 -75t42 -61q33 -29 76 -45t90 -22v426q-109 -10 -165 -71.5t-56 -151.5zM678 190q115 10 178.5 66.5t63.5 153.5q0 100 -58 151 q-41 37 -86 46t-98 18v-435z" />
<glyph unicode="%" horiz-adv-x="1724" d="M119 985v207q0 66 22.5 118t61.5 88t91 55.5t112 19.5q59 0 111 -19.5t91 -55.5t61.5 -88.5t22.5 -117.5v-207q0 -66 -22.5 -118t-61.5 -88t-91 -54t-111 -18t-111.5 18t-91.5 54t-61.5 88t-22.5 118zM276 991q0 -145 130 -145q66 0 97.5 38t31.5 107v195q0 70 -32 108.5 t-97 38.5q-66 0 -98 -38t-32 -109v-195zM434 0l688 1458h166l-686 -1458h-168zM1032 266v207q0 66 22.5 118t61.5 88t91.5 55.5t111.5 19.5t111.5 -19.5t91.5 -55.5t61.5 -88t22.5 -118v-207q0 -66 -22.5 -118t-61.5 -87.5t-91.5 -55t-111.5 -19.5t-111.5 19.5t-91.5 55 t-61.5 87.5t-22.5 118zM1190 272q0 -72 31.5 -109.5t97.5 -37.5t97.5 39t31.5 108v195q0 70 -32 108.5t-97 38.5q-66 0 -97.5 -37.5t-31.5 -109.5v-195z" />
<glyph unicode="&#x26;" horiz-adv-x="1495" d="M139 422q0 76 24.5 136t65.5 109.5t93.5 90.5t105.5 76l-51 62q-27 34 -49.5 73t-37 83t-14.5 95q0 70 26 129t72 102t111.5 67.5t147.5 24.5q78 0 141.5 -24.5t109.5 -68.5t70.5 -103.5t24.5 -128.5q0 -86 -43 -148.5t-113 -109.5q-20 -16 -41 -29q-16 -12 -34.5 -23.5 t-30.5 -21.5l307 -367q41 57 58.5 125t19.5 168h201q-4 -141 -38 -251.5t-108 -196.5l244 -291h-268l-119 143l-59.5 -46.5t-84 -51.5t-114 -41t-146.5 -16q-229 0 -350 117.5t-121 316.5zM346 426q0 -111 75 -179.5t189 -68.5q74 0 140.5 23.5t138.5 89.5l-346 411 q-41 -29 -76 -56.5t-62.5 -59t-43 -70.5t-15.5 -90zM489 1145q0 -45 29 -90t84 -111q18 10 43 29l27 18q43 29 74.5 65t31.5 87q0 61 -40 103t-105 42q-68 0 -106 -41t-38 -102z" />
<glyph unicode="'" horiz-adv-x="526" d="M160 1067v391h207v-391h-207z" />
<glyph unicode="(" horiz-adv-x="649" d="M176 240v979q0 61 7 120.5t40 116.5q31 55 74 100l92 95l141 -142l-64 -64q-28 -28 -50 -71q-31 -59 -31 -168v-954q0 -111 31 -168q23 -43 50 -71l64 -64l-141 -142l-92 95q-43 45 -74 100q-33 57 -40 117t-7 121z" />
<glyph unicode=")" horiz-adv-x="649" d="M119 -49l63 64q27 28 49 71q31 57 31 166v954q0 106 -31 166q-23 43 -49 71l-63 64l143 144l91 -95q42 -45 73 -100q33 -57 41 -116.5t8 -120.5v-979q0 -61 -8 -121t-41 -117q-31 -55 -73 -100l-91 -95z" />
<glyph unicode="*" horiz-adv-x="993" d="M125 954l235 125l-235 127l76 133l227 -141l-8 266h153l-8 -266l228 141l75 -133l-235 -127l235 -125l-75 -133l-228 142l8 -269h-153l8 269l-227 -142z" />
<glyph unicode="+" d="M104 461v194h345v342h194v-342h344v-194h-344v-344h-194v344h-345z" />
<glyph unicode="," horiz-adv-x="557" d="M160 238h237v-361l-237 -194v555z" />
<glyph unicode="-" horiz-adv-x="872" d="M137 471v195h598v-195h-598z" />
<glyph unicode="." horiz-adv-x="569" d="M160 0v250h250v-250h-250z" />
<glyph unicode="/" horiz-adv-x="778" d="M0 -152l584 1762h200l-583 -1762h-201z" />
<glyph unicode="0" d="M125 406v647q0 98 32.5 175t90 131t134.5 82.5t163 28.5t162.5 -28.5t134 -82.5t91.5 -131t34 -175v-647q0 -98 -34 -175t-91.5 -131.5t-134 -83t-162.5 -28.5t-163 28.5t-134.5 83t-90 131.5t-32.5 175zM334 412q0 -106 55 -172t156 -66q100 0 156.5 65.5t56.5 172.5 v635q0 106 -56.5 171.5t-156.5 65.5t-155.5 -65.5t-55.5 -171.5v-635z" />
<glyph unicode="1" d="M233 981v231l285 246h209v-1458h-209v1231z" />
<glyph unicode="2" d="M129 0v186l561 682q41 51 59.5 95.5t18.5 99.5q0 98 -55.5 159.5t-157.5 61.5q-41 0 -80 -12t-68.5 -39t-48 -70t-18.5 -104h-209q0 92 32 169t88 130t134 82.5t170 29.5q94 0 172 -28.5t133 -81.5t86 -129t31 -170q0 -96 -35 -165t-102 -151l-457 -559h594v-186h-848z " />
<glyph unicode="3" d="M86 395h209q2 -59 23.5 -100t53 -68.5t73.5 -40t87 -12.5q102 0 170 62.5t68 179.5q0 111 -60.5 175t-183.5 64h-34v183h34q115 0 168.5 60t53.5 161q0 111 -62.5 168t-153.5 57q-96 0 -153 -55t-66 -154h-209q4 92 39 166t92.5 125t133 79t163.5 28q92 0 170 -30 t134.5 -84t88 -129t31.5 -165q0 -117 -48 -193.5t-134 -117.5q94 -41 149.5 -125t55.5 -219q0 -104 -36 -184.5t-96.5 -133.5t-141 -79.5t-173.5 -26.5q-88 0 -166.5 23.5t-140 73.5t-99.5 128t-40 184z" />
<glyph unicode="4" d="M72 219v195l514 1044h225l-512 -1044h363v340h202v-340h156v-195h-156v-219h-202v219h-590z" />
<glyph unicode="5" d="M129 377h209q12 -98 63.5 -150.5t149.5 -52.5q94 0 151 57q47 47 58.5 115t11.5 141q0 66 -9 121.5t-33.5 96t-65.5 64.5t-105 24q-90 0 -140 -39t-67 -92h-190v796h786v-186h-598v-385q37 39 99.5 61.5t142.5 22.5q86 0 151.5 -24.5t110.5 -69.5q41 -41 66.5 -88.5 t39 -96.5t17.5 -101t4 -104q0 -117 -21.5 -212t-101.5 -175q-49 -49 -125 -81.5t-182 -32.5q-104 0 -184 32.5t-127 79.5q-59 59 -82 130t-29 149z" />
<glyph unicode="6" d="M115 424q0 90 30.5 176t77.5 182l332 676h223l-313 -627q29 12 61.5 17.5t67.5 5.5q80 0 149.5 -29.5t122 -85t82 -133.5t29.5 -174q0 -100 -32 -182t-89 -140.5t-136 -90t-173 -31.5t-174 29.5t-137.5 87t-89 137.5t-31.5 182zM324 428q0 -117 61 -185.5t160 -68.5 q98 0 160.5 68.5t62.5 185.5q0 109 -59.5 180.5t-163.5 71.5q-98 0 -159.5 -66.5t-61.5 -185.5z" />
<glyph unicode="7" d="M129 1042v416h868v-186l-487 -1272h-225l489 1272h-444v-230h-201z" />
<glyph unicode="8" d="M96 412q0 66 17.5 119t45 95t63.5 73.5t75 54.5q-72 43 -124 119.5t-52 193.5q0 92 32.5 166t90 127t134.5 81.5t167 28.5q88 0 165.5 -28.5t136 -81.5t91.5 -127t33 -166q0 -117 -52.5 -193.5t-123.5 -119.5q39 -23 74.5 -54.5t63.5 -73.5t45 -95.5t17 -118.5 q0 -98 -34.5 -177t-96 -134.5t-143.5 -84t-176 -28.5t-176 28.5t-142.5 84t-95.5 134.5t-35 177zM305 416q0 -51 18.5 -95.5t50.5 -77t76 -51t95 -18.5t94 18.5t76 51t51 77t18 95.5t-18 95t-51 77t-76 52t-94 19t-95 -19t-76 -52t-50.5 -77t-18.5 -95zM330 1061 q0 -98 59.5 -159.5t155.5 -61.5t156.5 61.5t60.5 159.5q0 96 -60.5 159.5t-156.5 63.5t-155.5 -63.5t-59.5 -159.5z" />
<glyph unicode="9" d="M115 1026q0 100 31.5 182t89 140.5t136.5 90t173 31.5t174 -29.5t137 -87t89 -138t32 -181.5q0 -90 -31 -176t-78 -182l-331 -676h-224l314 627q-29 -12 -63 -17.5t-68 -5.5q-80 0 -148.5 30t-121 85t-82 133t-29.5 174zM324 1030q0 -109 58 -180.5t163 -71.5 q98 0 160.5 66.5t62.5 185.5q0 117 -62.5 185.5t-160.5 68.5t-159.5 -68.5t-61.5 -185.5z" />
<glyph unicode=":" horiz-adv-x="620" d="M213 0v250h248v-250h-248zM213 584v250h248v-250h-248z" />
<glyph unicode=";" horiz-adv-x="620" d="M213 584v250h248v-250h-248zM217 238h238v-361l-238 -194v555z" />
<glyph unicode="&#x3c;" d="M168 475v187l756 362v-221l-502 -236l502 -233v-221z" />
<glyph unicode="=" d="M104 272v195h883v-195h-883zM104 670v194h883v-194h-883z" />
<glyph unicode="&#x3e;" d="M168 113v221l502 233l-502 236v221l756 -362v-187z" />
<glyph unicode="?" horiz-adv-x="1046" d="M145 1077q0 86 31 159t86 125t130 80.5t161 28.5q84 0 158.5 -27.5t130 -77.5t88.5 -123t33 -163q0 -74 -29 -134t-70 -118l-157 -221q-16 -23 -26.5 -54.5t-10.5 -55.5v-62h-209v72q0 63 16.5 108t52.5 95l160 215q29 37 46.5 74.5t17.5 80.5q0 86 -55.5 145.5 t-145.5 59.5q-96 0 -147.5 -61.5t-51.5 -145.5h-209zM449 0v223h231v-223h-231z" />
<glyph unicode="@" horiz-adv-x="1796" d="M174 729q0 158 60.5 294t163 235.5t237.5 155.5t285 56q141 0 269 -45t225 -128t153.5 -200.5t56.5 -260.5q0 -90 -31.5 -184.5t-89 -171.5t-138.5 -125t-179 -48q-78 0 -118 38t-48 89q-25 -47 -79 -87t-140 -40q-61 0 -110.5 25.5t-84.5 71t-53 107.5t-18 134 q0 86 20 173t63.5 155.5t108 112.5t150.5 44q47 0 81.5 -11t59 -27.5t39 -37t22.5 -38.5l17 98h174l-70 -510q-2 -18 -4 -40.5t1 -44t12.5 -36t29.5 -14.5q47 0 86 35t65.5 89t41 117.5t14.5 123.5q0 113 -43 199.5t-117 146t-170 91.5t-203 32q-117 0 -217 -44.5 t-173.5 -121t-117 -181t-43.5 -227.5q0 -135 45.5 -241.5t123 -182.5t181 -115.5t220.5 -39.5q66 0 132 8t125.5 21.5t109 31.5t83.5 39l74 -139q-96 -59 -237.5 -91t-296.5 -32q-152 0 -288 51t-238.5 147.5t-162 233.5t-59.5 309zM725 670q0 -35 4 -71t15.5 -64.5t33 -47 t56.5 -18.5q51 0 91 28.5t66.5 78t39.5 113t13 130.5q0 66 -46 108t-113 42q-41 0 -71 -33t-49.5 -79t-29.5 -97t-10 -90z" />
<glyph unicode="A" horiz-adv-x="1280" d="M16 0l535 1458h178l535 -1458h-236l-100 293h-576l-100 -293h-236zM418 481h448l-221 647z" />
<glyph unicode="B" horiz-adv-x="1357" d="M190 0v1458h568q205 0 322.5 -106.5t117.5 -292.5q0 -59 -17.5 -109.5t-45 -90.5t-62.5 -67.5t-72 -41.5q43 -16 82 -46t70 -71t49.5 -96.5t18.5 -124.5q0 -100 -33 -177t-91.5 -129.5t-139 -79t-177.5 -26.5h-590zM412 199h348q117 0 178 62.5t61 160.5t-61 159.5 t-178 61.5h-348v-444zM412 842h327q106 0 172 53t66 156q0 102 -65.5 155.5t-172.5 53.5h-327v-418z" />
<glyph unicode="C" horiz-adv-x="1286" d="M137 729q0 104 2 189.5t15.5 155t42 129t82.5 112.5q76 76 172 115.5t211 39.5q203 0 342 -114.5t178 -333.5h-226q-27 111 -99.5 180.5t-194.5 69.5q-66 0 -121.5 -23.5t-94.5 -64.5q-27 -29 -44 -63t-26 -84t-13.5 -123.5t-4.5 -184.5t4.5 -184.5t13.5 -123.5t26.5 -84 t43.5 -63q39 -41 94.5 -64.5t121.5 -23.5q123 0 196.5 70t99.5 180h224q-18 -109 -64.5 -192.5t-115 -141t-155.5 -86t-185 -28.5q-115 0 -211.5 40t-171.5 115q-53 53 -82 112.5t-42.5 129.5t-15.5 155t-2 189z" />
<glyph unicode="D" horiz-adv-x="1363" d="M190 0v1458h512q115 0 211.5 -33.5t165.5 -103.5q59 -59 90 -128t43.5 -143.5t13.5 -152.5t1 -158t-1 -161.5t-13.5 -159.5t-43 -149.5t-90.5 -131.5q-70 -70 -166 -103.5t-211 -33.5h-512zM412 199h268q158 0 248 98q57 63 67.5 177t10.5 265q0 152 -10.5 255.5 t-67.5 166.5q-90 98 -248 99h-268v-1061z" />
<glyph unicode="E" horiz-adv-x="1234" d="M190 0v1458h932v-198h-710v-426h606v-197h-606v-438h710v-199h-932z" />
<glyph unicode="F" horiz-adv-x="1198" d="M190 0v1458h932v-198h-710v-445h606v-199h-606v-616h-222z" />
<glyph unicode="G" horiz-adv-x="1329" d="M137 729q0 104 2 189.5t15.5 155t42 129t82.5 112.5q76 76 171 115.5t212 39.5t208 -35.5t157.5 -97t107.5 -143.5t57 -176h-223q-29 121 -107 187.5t-200 66.5q-66 0 -121.5 -24.5t-94.5 -65.5q-27 -29 -44 -63t-26 -84t-13.5 -122.5t-4.5 -183.5t4.5 -184.5 t13.5 -123.5t26.5 -84t43.5 -63q39 -41 94.5 -64.5t121.5 -23.5q72 0 133 27t104 76q41 47 57.5 102t16.5 127v82h-311v188h532v-223q0 -141 -29.5 -237.5t-101.5 -173.5q-84 -88 -184.5 -127t-216.5 -39q-115 0 -211.5 40t-171.5 115q-53 53 -82 112.5t-42.5 129.5 t-15.5 155t-2 189z" />
<glyph unicode="H" horiz-adv-x="1415" d="M190 0v1458h222v-622h592v622h221v-1458h-221v637h-592v-637h-222z" />
<glyph unicode="I" horiz-adv-x="602" d="M190 0v1458h222v-1458h-222z" />
<glyph unicode="J" horiz-adv-x="1036" d="M27 129l147 145q39 -39 83 -63.5t124 -24.5q123 0 193.5 74t70.5 217v981h221v-997q0 -115 -37.5 -203t-104.5 -147.5t-155 -91t-188 -31.5q-113 0 -195.5 32.5t-158.5 108.5z" />
<glyph unicode="K" horiz-adv-x="1347" d="M190 0v1458h222v-733l596 733h270l-473 -571l522 -887h-260l-410 719l-245 -295v-424h-222z" />
<glyph unicode="L" horiz-adv-x="1175" d="M190 0v1458h222v-1259h702v-199h-924z" />
<glyph unicode="M" horiz-adv-x="1665" d="M190 0v1458h222l426 -907l417 907h222v-1458h-222v975l-335 -711h-164l-344 711v-975h-222z" />
<glyph unicode="N" horiz-adv-x="1478" d="M190 0v1458h203l674 -1024v1024h221v-1458h-203l-673 1026v-1026h-222z" />
<glyph unicode="O" horiz-adv-x="1323" d="M137 729q0 104 2 189.5t15.5 155t42 129t82.5 112.5q76 76 171 115.5t212 39.5t213 -39.5t172 -115.5q53 -53 81.5 -112.5t41 -129t14.5 -154.5t2 -190q0 -104 -2 -189t-14.5 -155t-41 -129t-81.5 -113q-76 -76 -172.5 -115.5t-212.5 -39.5q-117 0 -212.5 40t-170.5 115 q-53 53 -82 112.5t-42.5 129.5t-15.5 155t-2 189zM358 729q0 -111 3.5 -183.5t12.5 -122.5t26.5 -84t43.5 -63q39 -41 95.5 -65.5t122.5 -24.5t122 25t95 65q27 29 44 63t26 84t12.5 122.5t3.5 183.5t-3.5 183.5t-12.5 122.5t-26.5 84t-43.5 63q-39 41 -95.5 65.5 t-121.5 24.5q-66 0 -122.5 -24.5t-95.5 -65.5q-27 -29 -44 -63t-26 -84t-12.5 -122.5t-3.5 -183.5z" />
<glyph unicode="P" horiz-adv-x="1288" d="M190 0v1458h553q106 0 192.5 -33.5t148 -92t94 -140.5t32.5 -176q0 -96 -32.5 -177t-94 -139.5t-147.5 -92.5t-193 -34h-331v-573h-222zM412 774h319q117 0 187.5 62.5t70.5 179.5t-70.5 180.5t-187.5 63.5h-319v-486z" />
<glyph unicode="Q" horiz-adv-x="1323" d="M137 729q0 104 2 189.5t15.5 155t42 129t82.5 112.5q76 76 171 115.5t212 39.5t213 -39.5t172 -115.5q53 -53 81.5 -112.5t41 -129t14.5 -154.5t2 -190q0 -92 -1 -169t-10.5 -140.5t-28 -117.5t-54.5 -103l143 -142l-123 -123l-145 146q-63 -45 -141 -68.5t-164 -23.5 q-117 0 -212.5 40t-170.5 115q-53 53 -82 112.5t-42.5 129.5t-15.5 155t-2 189zM358 729q0 -111 3.5 -183.5t12.5 -122.5t26.5 -84t43.5 -63q39 -41 95.5 -65.5t122.5 -24.5q84 0 149 47l-154 154l123 123l142 -141q29 55 36 137t7 223q0 111 -3.5 183.5t-12.5 122.5 t-26.5 84t-43.5 63q-39 41 -95.5 65.5t-121.5 24.5q-66 0 -122.5 -24.5t-95.5 -65.5q-27 -29 -44 -63t-26 -84t-12.5 -122.5t-3.5 -183.5z" />
<glyph unicode="R" horiz-adv-x="1341" d="M190 0v1458h566q104 0 187 -31.5t142.5 -88t91 -135.5t31.5 -171q0 -158 -84 -255t-206 -132l335 -645h-258l-307 614h-276v-614h-222zM412 803h327q111 0 179.5 59.5t68.5 167.5q0 109 -68.5 169.5t-179.5 60.5h-327v-457z" />
<glyph unicode="S" horiz-adv-x="1208" d="M61 180l148 146q80 -80 170 -110t203 -30q143 0 222 58.5t79 165.5q0 100 -58 151q-29 27 -61.5 39t-97.5 23l-172 24q-178 25 -277 117q-106 100 -106 278q0 94 33.5 173t96 136.5t152.5 88t205 30.5q145 0 251.5 -38.5t201.5 -126.5l-142 -140q-68 66 -146.5 89.5 t-170.5 23.5q-129 0 -197.5 -64.5t-68.5 -162.5q0 -41 13 -75t42 -61q57 -51 164 -67l166 -25q102 -16 163.5 -41.5t108.5 -66.5q59 -53 89 -129t30 -170q0 -100 -39 -180t-108.5 -135.5t-166 -84t-210.5 -28.5q-166 0 -289.5 43t-227.5 149z" />
<glyph unicode="T" horiz-adv-x="1146" d="M61 1260v198h1024v-198h-401v-1260h-221v1260h-402z" />
<glyph unicode="U" horiz-adv-x="1382" d="M168 492v966h221v-956q0 -147 82 -231.5t219 -84.5t220 84t83 232v956h221v-966q0 -113 -39.5 -206t-110.5 -159t-167 -102.5t-207 -36.5t-207 36.5t-165.5 102.5t-109.5 159t-40 206z" />
<glyph unicode="V" horiz-adv-x="1155" d="M10 1458h230l335 -1061l336 1061h234l-483 -1458h-173z" />
<glyph unicode="W" horiz-adv-x="1783" d="M23 1458h233l254 -1042l293 1042h178l293 -1042l254 1042h233l-381 -1458h-192l-297 1022l-295 -1022h-193z" />
<glyph unicode="X" horiz-adv-x="1183" d="M20 0l451 748l-422 710h254l287 -522l289 522h254l-422 -710l452 -748h-256l-317 559l-316 -559h-254z" />
<glyph unicode="Y" horiz-adv-x="1114" d="M10 1458h242l305 -641l305 641h242l-436 -858v-600h-222v600z" />
<glyph unicode="Z" horiz-adv-x="1130" d="M98 0v190l674 1070h-645v198h905v-180l-678 -1079h678v-199h-934z" />
<glyph unicode="[" horiz-adv-x="710" d="M176 -152v1762h447v-187h-238v-1388h238v-187h-447z" />
<glyph unicode="\" horiz-adv-x="778" d="M0 1593h201l577 -1745h-200z" />
<glyph unicode="]" horiz-adv-x="710" d="M88 33h242v1392h-242v185h447v-1762h-447v185z" />
<glyph unicode="^" horiz-adv-x="1169" d="M137 821l352 652h191l350 -652h-217l-229 424l-230 -424h-217z" />
<glyph unicode="_" horiz-adv-x="1169" d="M0 -209h1169v-143h-1169v143z" />
<glyph unicode="`" horiz-adv-x="1024" d="M233 1559h232l153 -332h-157z" />
<glyph unicode="a" horiz-adv-x="1085" d="M88 305q0 131 89 215t269 84h275v74q0 98 -52.5 146t-174.5 48q-86 0 -135.5 -22.5t-92.5 -77.5l-137 129q74 86 159 118t214 32q428 0 428 -357v-694h-205v94q-57 -57 -118.5 -81.5t-157.5 -24.5q-98 0 -165 23.5t-114 70.5q-82 86 -82 223zM291 309q0 -72 46 -109.5 t144 -37.5q59 0 106.5 9t88.5 50q45 45 45 154v84h-244q-92 0 -139 -39t-47 -111z" />
<glyph unicode="b" horiz-adv-x="1132" d="M166 0v1458h209v-524q57 68 122.5 92.5t149.5 24.5q78 0 143.5 -25t108.5 -68q39 -39 62.5 -90t36 -108.5t15.5 -118.5t3 -121q0 -59 -3 -120.5t-15.5 -120t-36 -109.5t-62.5 -90q-43 -43 -109.5 -67.5t-144.5 -24.5q-86 0 -150.5 25.5t-123.5 97.5v-111h-205zM375 520 q0 -70 7 -132t30.5 -110.5t65.5 -76t114 -27.5q70 0 113 27.5t65.5 76t29.5 111t7 131.5q0 70 -7 132.5t-29.5 109.5t-65.5 74.5t-113 27.5q-72 0 -114 -27.5t-65.5 -74.5t-30.5 -109.5t-7 -132.5z" />
<glyph unicode="c" horiz-adv-x="993" d="M113 520q0 145 40 246.5t104.5 164t147 91.5t170.5 29q109 0 189 -34t154 -112l-144 -139q-49 53 -93 75.5t-106 22.5q-123 0 -192 -92q-35 -43 -48 -101.5t-13 -150.5t13 -151.5t48 -102.5q70 -92 192 -92q61 0 105.5 22.5t93.5 75.5l144 -137q-74 -78 -154 -112.5 t-189 -34.5q-88 0 -170.5 28.5t-147 92t-104.5 165t-40 246.5z" />
<glyph unicode="d" horiz-adv-x="1132" d="M117 520q0 59 3 120.5t15 119t36 109t62 89.5q43 43 109 68t143 25q84 0 149.5 -25t123.5 -92v524h209v-1458h-205v111q-59 -72 -124 -97.5t-151 -25.5q-78 0 -144.5 24.5t-109.5 67.5q-39 39 -62.5 90t-35.5 109.5t-15 120t-3 120.5zM326 520q0 -70 7 -132t30.5 -110.5 t65.5 -76t114 -27.5q70 0 112.5 27.5t65 76t30 111t7.5 131.5q0 70 -7.5 132.5t-30 109.5t-65.5 74.5t-112 27.5q-72 0 -114 -27.5t-65.5 -74.5t-30.5 -109.5t-7 -132.5z" />
<glyph unicode="e" horiz-adv-x="1103" d="M113 520q0 254 119.5 392.5t320.5 138.5q104 0 186 -37t138.5 -102.5t86 -157.5t29.5 -203v-92h-674q0 -135 68 -213t197 -78q88 0 142 25.5t110 80.5l133 -124q-41 -41 -81 -71t-86 -50.5t-100.5 -30.5t-121.5 -10q-98 0 -183.5 27.5t-148 90t-99 165t-36.5 249.5z M319 604h467q-2 47 -7 77t-21 64q-25 59 -78 95.5t-127 36.5t-128 -36t-79 -96q-16 -35 -20.5 -64.5t-6.5 -76.5z" />
<glyph unicode="f" horiz-adv-x="671" d="M80 860v160h119v160q0 55 17 107t52 92t88.5 64.5t126.5 24.5h131v-178h-92q-59 0 -86.5 -31.5t-27.5 -89.5v-149h206v-160h-206v-860h-209v860h-119z" />
<glyph unicode="g" horiz-adv-x="1124" d="M117 539q0 133 20.5 239.5t95.5 182.5q90 90 250 90q84 0 148.5 -26t124.5 -97v110h202v-1032q0 -96 -30.5 -176t-88 -138.5t-139.5 -91t-186 -32.5q-119 0 -202 30.5t-165 106.5l134 133q49 -47 98 -69.5t127 -22.5q66 0 112 21.5t75.5 58.5t43 84t13.5 100v133 q-57 -68 -123 -93t-146 -25q-78 0 -141.5 24.5t-106.5 67.5q-76 76 -96 182.5t-20 239.5zM326 539q0 -61 7 -120t28.5 -105t63.5 -73.5t114 -27.5q70 0 111.5 27.5t64 73.5t29 104.5t6.5 120.5q0 61 -6.5 119.5t-29 104.5t-64.5 73.5t-111 27.5q-72 0 -114 -27.5 t-63.5 -73.5t-28.5 -104.5t-7 -119.5z" />
<glyph unicode="h" horiz-adv-x="1159" d="M166 0v1458h209v-524q53 59 121.5 88t146.5 29q86 0 153.5 -28t113.5 -78t70 -120.5t24 -154.5v-670h-209v637q0 119 -60.5 173t-148.5 54t-149.5 -55t-61.5 -172v-637h-209z" />
<glyph unicode="i" horiz-adv-x="540" d="M160 1243v221h221v-221h-221zM166 0v1038h209v-1038h-209z" />
<glyph unicode="j" horiz-adv-x="540" d="M-39 -246h92q63 0 88 31t25 90v1163h209v-1175q0 -57 -16.5 -109.5t-51.5 -91.5t-89 -62.5t-128 -23.5h-129v178zM160 1243v221h221v-221h-221z" />
<glyph unicode="k" horiz-adv-x="1122" d="M166 0v1458h209v-899l403 479h254l-360 -407l405 -631h-258l-291 479l-153 -174v-305h-209z" />
<glyph unicode="l" horiz-adv-x="636" d="M160 287v1171h209v-1159q0 -59 24.5 -90t87.5 -31h92v-178h-129q-74 0 -128 23.5t-88.5 62.5t-51 91.5t-16.5 109.5z" />
<glyph unicode="m" horiz-adv-x="1796" d="M166 0v1038h205v-104q53 57 125.5 87t150.5 30q197 0 295 -152q125 152 326 152q80 0 147.5 -25t114.5 -70q59 -59 84.5 -131.5t25.5 -160.5v-664h-208v633q0 121 -60.5 176t-148.5 55q-43 0 -82 -13t-69 -41t-47 -70t-17 -97v-643h-209v633q0 121 -60.5 176t-148.5 55 t-151.5 -56t-63.5 -175v-633h-209z" />
<glyph unicode="n" horiz-adv-x="1163" d="M166 0v1038h205v-104q53 59 125.5 88t150.5 29q80 0 144.5 -25t111.5 -70q59 -59 82 -131.5t23 -160.5v-664h-209v633q0 121 -60.5 176t-148.5 55t-151.5 -56t-63.5 -175v-633h-209z" />
<glyph unicode="o" horiz-adv-x="1099" d="M117 520q0 131 24.5 230.5t98.5 177.5q51 53 126.5 88t182.5 35q106 0 183 -35t128 -88q74 -78 98.5 -177.5t24.5 -230.5q0 -133 -24.5 -232.5t-98.5 -176.5q-51 -53 -128 -88t-183 -35t-182 34.5t-127 88.5q-74 78 -98.5 177t-24.5 232zM326 520q0 -86 12 -161.5 t59 -122.5q61 -61 152 -62q92 0 153 62q47 47 59.5 122.5t12.5 161.5t-12 162t-60 123q-59 59 -153 59q-92 0 -152 -59q-47 -47 -59 -123t-12 -162z" />
<glyph unicode="p" horiz-adv-x="1132" d="M166 -420v1458h205v-110q59 72 123.5 97.5t150.5 25.5q78 0 144.5 -25t109.5 -68q39 -39 62.5 -90t36 -108.5t15.5 -118.5t3 -121q0 -59 -3 -120.5t-15.5 -120t-36 -109.5t-62.5 -90q-43 -43 -108.5 -67.5t-143.5 -24.5q-84 0 -149.5 25.5t-122.5 92.5v-526h-209z M375 520q0 -70 7 -132t30.5 -110.5t65.5 -76t114 -27.5q70 0 113 27.5t65.5 76t29.5 111t7 131.5q0 70 -7 132.5t-29.5 109.5t-65.5 74.5t-113 27.5q-72 0 -114 -27.5t-65.5 -74.5t-30.5 -109.5t-7 -132.5z" />
<glyph unicode="q" horiz-adv-x="1132" d="M117 520q0 59 3 120.5t15 119t36 109t62 89.5q43 43 110 68t144 25q86 0 150.5 -26t124.5 -97v110h205v-1458h-209v526q-57 -68 -123 -93t-150 -25q-78 0 -143.5 24.5t-108.5 67.5q-39 39 -62.5 90t-35.5 109.5t-15 120t-3 120.5zM326 520q0 -70 7 -132t30.5 -110.5 t65.5 -76t114 -27.5q70 0 112.5 27.5t65 76t30 111t7.5 131.5q0 70 -7.5 132.5t-30 109.5t-65.5 74.5t-112 27.5q-72 0 -114 -27.5t-65.5 -74.5t-30.5 -109.5t-7 -132.5z" />
<glyph unicode="r" horiz-adv-x="899" d="M166 0v1038h205v-112q41 55 114.5 90t161.5 35q76 0 135.5 -22.5t112.5 -76.5l-158 -157q-35 35 -68.5 52t-86.5 17q-86 0 -146.5 -62.5t-60.5 -170.5v-631h-209z" />
<glyph unicode="s" horiz-adv-x="1021" d="M66 137l137 137q63 -66 142 -87t157 -21q96 0 161.5 35t65.5 108q0 53 -31.5 85t-107.5 38l-166 14q-147 12 -227 81t-80 206q0 76 30.5 135.5t84 99.5t124 61.5t152.5 21.5q117 0 215 -27t170 -90l-131 -133q-49 41 -115.5 58.5t-140.5 17.5q-94 0 -141.5 -37t-47.5 -97 q0 -47 30 -78.5t114 -39.5l164 -15q147 -12 228 -82.5t81 -210.5q0 -82 -33 -143t-90 -103t-137 -62.5t-172 -20.5q-127 0 -235.5 29.5t-200.5 119.5z" />
<glyph unicode="t" horiz-adv-x="700" d="M72 860v160h118v315h209v-315h201v-160h-201v-561q0 -57 28 -89t87 -32h86v-178h-125q-74 0 -127 24.5t-88 64.5t-52.5 92t-17.5 108v571h-118z" />
<glyph unicode="u" horiz-adv-x="1163" d="M156 375v663h209v-632q0 -121 60 -176.5t148 -55.5q43 0 83 13.5t69 42t46 72.5t17 104v632h209v-1038h-204v104q-53 -59 -126 -87.5t-151 -28.5q-80 0 -144.5 24.5t-111.5 69.5q-59 59 -81.5 132t-22.5 161z" />
<glyph unicode="v" horiz-adv-x="964" d="M16 1038h222l245 -731l244 731h221l-381 -1038h-170z" />
<glyph unicode="w" horiz-adv-x="1521" d="M16 1038h222l200 -731l242 731h162l239 -731l201 731h223l-323 -1038h-178l-244 725l-242 -725h-180z" />
<glyph unicode="x" horiz-adv-x="1030" d="M45 0l356 530l-342 508h252l205 -338l203 338h252l-340 -508l354 -530h-252l-217 354l-219 -354h-252z" />
<glyph unicode="y" horiz-adv-x="958" d="M16 1038h222l247 -731l242 731h223l-458 -1245q-29 -82 -76 -129q-43 -43 -98.5 -59.5t-114.5 -16.5h-84v189h53q66 0 96.5 23.5t53.5 86.5l57 162z" />
<glyph unicode="z" horiz-adv-x="960" d="M88 0v166l516 686h-487v186h745v-166l-520 -686h520v-186h-774z" />
<glyph unicode="{" horiz-adv-x="833" d="M92 637v184h76q35 0 58.5 11.5t39.5 27.5q37 37 37 123v342q0 74 16.5 124t57.5 91q35 35 88 52.5t131 17.5h145v-187h-79q-49 0 -76 -6t-43 -22t-23.5 -47t-7.5 -84v-330q0 -49 -12.5 -84t-30.5 -57.5t-43 -38t-49 -25.5q25 -10 49.5 -25.5t42.5 -38t30.5 -57.5 t12.5 -84v-329q0 -53 7 -84t24 -48q16 -16 42.5 -22t76.5 -6h79v-187h-145q-78 0 -131 17.5t-88 52.5q-41 41 -57.5 91t-16.5 124v342q0 86 -37 123q-16 16 -39.5 27.5t-58.5 11.5h-76z" />
<glyph unicode="|" horiz-adv-x="692" d="M242 -152v1762h209v-1762h-209z" />
<glyph unicode="}" horiz-adv-x="833" d="M92 35h80q49 0 75.5 6t43.5 22q16 16 23.5 47t7.5 85v329q0 49 12 84t31.5 57.5t44 38t49.5 25.5q-25 10 -49.5 25.5t-44 38t-31.5 57.5t-12 84v330q0 53 -7.5 83.5t-23.5 47.5q-16 16 -43 22t-76 6h-80v187h146q78 0 131 -17.5t88 -52.5q41 -41 57 -91t16 -124v-342 q0 -86 37 -123q16 -16 41 -27.5t60 -11.5h73v-184h-73q-35 0 -59.5 -11.5t-41.5 -27.5q-37 -37 -37 -123v-342q0 -74 -16 -124t-57 -91q-35 -35 -88.5 -52.5t-130.5 -17.5h-146v187z" />
<glyph unicode="~" horiz-adv-x="1175" d="M88 571q45 45 83 76t73 49.5t69.5 26.5t75.5 8q59 0 111.5 -18.5t115.5 -48.5q43 -23 82 -36.5t82 -13.5q20 0 40 3.5t39.5 12.5t43 27.5t51.5 47.5l133 -132q-45 -45 -82.5 -75.5t-73.5 -49t-71 -26.5t-76 -8q-59 0 -112.5 18.5t-116.5 48.5q-43 23 -81 36t-81 13 t-80 -16t-94 -74z" />
<glyph unicode="&#xa1;" horiz-adv-x="679" d="M178 -420l45 1024h164l45 -1024h-254zM190 815v223h230v-223h-230z" />
<glyph unicode="&#xa2;" horiz-adv-x="1019" d="M113 750q0 115 27.5 204.5t77.5 156.5t119 106.5t150 54.5v186h164v-184q88 -10 155.5 -46t133.5 -106l-139 -135q-41 45 -79 67.5t-89 30.5v-671q51 8 89 30.5t79 67.5l139 -135q-66 -70 -133.5 -105.5t-155.5 -46.5v-225h-164v227q-82 14 -150.5 54.5t-118.5 107 t-77.5 156.5t-27.5 205zM322 750q0 -90 15 -148.5t48 -103.5q49 -66 121 -80v663q-70 -14 -119 -80q-33 -45 -49 -102t-16 -149z" />
<glyph unicode="&#xa3;" horiz-adv-x="1155" d="M88 641v160h127v196q0 113 39 202t104.5 148.5t154.5 91t189 31.5q113 0 196 -32.5t159 -108.5l-148 -145q-39 39 -83 63.5t-124 24.5q-123 0 -193.5 -74t-70.5 -217v-180h264v-160h-264v-442h619v-199h-842v641h-127z" />
<glyph unicode="&#xa4;" horiz-adv-x="1394" d="M88 508v137h139v176h-139v137h145q8 115 36 200t100 157q76 76 171 115.5t210 39.5q100 0 187 -29.5t155.5 -86t114.5 -140.5t65 -192h-225q-27 111 -101 181.5t-196 70.5q-66 0 -120.5 -24.5t-94.5 -65.5q-39 -41 -55.5 -89t-22.5 -137h374v-137h-382v-176h382v-137 h-374q6 -92 22.5 -142.5t55.5 -91.5q41 -41 95 -65.5t120 -24.5q123 0 197.5 71t101.5 181h223q-18 -109 -65.5 -192.5t-116 -140t-155.5 -86t-185 -29.5q-115 0 -210.5 40t-170.5 115q-74 74 -100.5 160t-35.5 205h-145z" />
<glyph unicode="&#xa5;" horiz-adv-x="1114" d="M10 1458h242l307 -643l303 643h240l-299 -594h178v-159h-260l-53 -105v-106h313v-160h-313v-334h-222v334h-313v160h313v106l-53 105h-260v159h178z" />
<glyph unicode="&#xa6;" horiz-adv-x="704" d="M242 -152v717h209v-717h-209zM242 893v717h209v-717h-209z" />
<glyph unicode="&#xa7;" horiz-adv-x="1112" d="M152 530q0 59 17 110.5t46 91.5t64.5 69.5t70.5 48.5q-76 37 -124 99.5t-48 174.5q0 72 25.5 134.5t75 109.5t120 74.5t160.5 27.5t161 -25.5t120 -69.5t75.5 -106.5t28.5 -135.5h-201q-6 84 -56 119.5t-128 35.5q-86 0 -133 -41t-47 -117q0 -63 41 -103t112 -62l144 -43 q141 -43 216 -136.5t75 -244.5q0 -59 -18.5 -110.5t-47.5 -91.5t-63.5 -69.5t-69.5 -48.5q78 -35 129 -103.5t51 -185.5q0 -88 -31.5 -155.5t-86 -113.5t-125 -70.5t-148.5 -24.5q-76 0 -145.5 20.5t-125 63.5t-90 108.5t-36.5 155.5h205q6 -76 56 -119t136 -43q88 0 137 46 t49 126q0 55 -36.5 104.5t-122.5 75.5l-144 44q-141 43 -214.5 134.5t-73.5 245.5zM356 535q0 -59 16.5 -97.5t41.5 -64.5q53 -57 145 -58q90 0 143 58q25 27 42.5 63.5t17.5 98.5q0 106 -60 163q-29 27 -62.5 42.5t-80.5 15.5q-92 0 -145 -58q-29 -29 -43.5 -66.5 t-14.5 -96.5z" />
<glyph unicode="&#xa8;" horiz-adv-x="1024" d="M197 1237v221h188v-221h-188zM639 1237v221h188v-221h-188z" />
<glyph unicode="&#xa9;" horiz-adv-x="1765" d="M141 729q0 154 58.5 289t159 235.5t235.5 158.5t289 58t289 -58t235 -158.5t158.5 -235.5t58.5 -289t-58.5 -289t-158.5 -235.5t-235.5 -158.5t-288.5 -58q-154 0 -289 58t-235.5 158.5t-159 235.5t-58.5 289zM291 729q0 -127 46 -236.5t126 -191.5t188.5 -128t231.5 -46 t231.5 46t188 128t126 191.5t46.5 236.5t-46.5 236.5t-126 191.5t-188 128t-231.5 46t-231.5 -46t-188.5 -128t-126 -191.5t-46 -236.5zM528 729q0 94 27 170t74 129t114.5 82t151.5 29q86 0 147.5 -27t120.5 -80l-94 -96q-47 41 -84 56.5t-90 15.5q-117 0 -169 -79 t-52 -200t52 -199.5t169 -78.5q53 0 90 15t84 56l94 -96q-59 -53 -120.5 -80t-147.5 -27q-84 0 -151.5 29t-114.5 82t-74 129t-27 170z" />
<glyph unicode="&#xaa;" horiz-adv-x="925" d="M106 872q0 104 72 172t213 68h215v57q0 78 -41 115t-137 37q-68 0 -105.5 -17.5t-72.5 -62.5l-113 107q59 70 127 94t172 24q340 0 340 -284v-553h-166v73q-45 -45 -93 -63t-124 -18q-78 0 -130 17t-91 56q-33 33 -49.5 79t-16.5 99zM272 877q0 -55 34 -84t112 -29 q47 0 85 7t68 38q35 33 35 119v65h-190q-72 0 -108 -30.5t-36 -85.5z" />
<glyph unicode="&#xab;" horiz-adv-x="1212" d="M76 557l471 469v-252l-219 -217l219 -219v-252zM594 557l471 469v-252l-221 -217l221 -219v-252z" />
<glyph unicode="&#xac;" d="M98 489v195h893v-483h-194v288h-699z" />
<glyph unicode="&#xad;" horiz-adv-x="872" d="M137 471v195h598v-195h-598z" />
<glyph unicode="&#xae;" horiz-adv-x="1765" d="M141 729q0 154 58.5 289t159 235.5t235.5 158.5t289 58t289 -58t235 -158.5t158.5 -235.5t58.5 -289t-58.5 -289t-158.5 -235.5t-235.5 -158.5t-288.5 -58q-154 0 -289 58t-235.5 158.5t-159 235.5t-58.5 289zM289 729q0 -127 46 -237.5t126 -191.5t188.5 -128t233.5 -47 t232.5 47t187 128t126 191.5t46.5 237.5t-46.5 237.5t-126 191.5t-187 128t-232.5 47t-233.5 -47t-188.5 -128t-126 -191.5t-46 -237.5zM625 330v800h301q57 0 104 -19t81 -53t53.5 -79t19.5 -94q0 -86 -46 -140.5t-112 -76.5l178 -338h-166l-164 317h-102v-317h-147z M772 764h135q59 0 95 35t36 86t-35.5 86t-95.5 35h-135v-242z" />
<glyph unicode="&#xaf;" horiz-adv-x="1024" d="M195 1274v149h634v-149h-634z" />
<glyph unicode="&#xb0;" horiz-adv-x="964" d="M125 1124q0 74 27.5 139.5t77 113.5t114 77t137.5 29q74 0 139.5 -29t113.5 -77t77 -113.5t29 -139.5t-29 -138t-77 -113.5t-113.5 -77t-139.5 -27.5t-138 27.5t-113.5 77t-77 113.5t-27.5 138zM297 1124q0 -80 53 -134t131 -54t132.5 54t54.5 134q0 39 -14.5 74 t-40 61.5t-59.5 41t-73 14.5q-78 0 -131 -55.5t-53 -135.5z" />
<glyph unicode="&#xb1;" d="M104 0v195h883v-195h-883zM104 647v195h345v344h194v-344h344v-195h-344v-346h-194v346h-345z" />
<glyph unicode="&#xb2;" horiz-adv-x="716" d="M92 584v141l330 381q25 29 35 52.5t10 53.5q0 51 -27.5 82t-81.5 31q-41 0 -74.5 -23.5t-33.5 -89.5h-158q0 119 76 186.5t190 67.5q117 0 192 -67.5t75 -186.5q0 -63 -25 -105t-70 -95l-247 -287h342v-141h-533z" />
<glyph unicode="&#xb3;" horiz-adv-x="741" d="M92 831h158q2 -59 39 -87.5t84 -28.5q53 0 86 32.5t33 92.5q0 55 -32 89t-93 34h-23v135h23q59 0 86.5 32.5t27.5 79.5q0 57 -32.5 86t-77.5 29q-47 0 -77 -27.5t-34 -78.5h-156q4 117 80 182t187 65q57 0 106 -18t84 -51t55.5 -79t20.5 -101q0 -72 -28.5 -116t-73.5 -67 q47 -25 80.5 -72t33.5 -126q0 -66 -22.5 -115t-60.5 -82t-88 -49.5t-105 -16.5q-53 0 -103.5 14.5t-89.5 46.5t-63.5 80.5t-24.5 116.5z" />
<glyph unicode="&#xb4;" horiz-adv-x="1024" d="M406 1227l153 332h232l-228 -332h-157z" />
<glyph unicode="&#xb5;" horiz-adv-x="1165" d="M156 -420v1458h209v-632q0 -121 61 -176.5t149 -55.5t150.5 55.5t62.5 176.5v632h209v-1038h-204v104q-53 -59 -125 -87.5t-150 -28.5q-92 0 -153 51v-459h-209z" />
<glyph unicode="&#xb6;" horiz-adv-x="1304" d="M78 1051q0 92 32.5 166.5t92 128t145.5 83t191 29.5h575v-1878h-209v1680h-221v-1680h-209v1069q-84 0 -156.5 33t-126 88t-84 128t-30.5 153z" />
<glyph unicode="&#xb7;" horiz-adv-x="569" d="M160 444v250h250v-250h-250z" />
<glyph unicode="&#xb8;" horiz-adv-x="1024" d="M342 -432l143 301h168l-104 -301h-207z" />
<glyph unicode="&#xb9;" horiz-adv-x="567" d="M82 1126v179l178 153h158v-874h-158v698z" />
<glyph unicode="&#xba;" horiz-adv-x="937" d="M125 1044q0 104 19.5 183.5t78.5 140.5q41 41 100.5 69.5t145.5 28.5t146.5 -28.5t101.5 -69.5q59 -61 78.5 -140t19.5 -184q0 -106 -19.5 -185t-78.5 -140q-41 -41 -101.5 -69.5t-146.5 -28.5t-145.5 28.5t-100.5 69.5q-59 61 -78.5 140t-19.5 185zM295 1044 q0 -66 8 -126t47 -99q47 -47 119 -47q74 0 121 47q39 39 46 99.5t7 125.5q0 66 -7 125.5t-46 98.5q-47 47 -121 47q-72 0 -119 -47q-39 -39 -47 -98.5t-8 -125.5z" />
<glyph unicode="&#xbb;" horiz-adv-x="1212" d="M147 86v252l222 219l-222 217v252l474 -469zM666 86v252l219 219l-219 217v252l473 -469z" />
<glyph unicode="&#xbc;" horiz-adv-x="1654" d="M82 1126v179l178 153h158v-874h-158v698zM369 0l686 1458h166l-686 -1458h-166zM983 125v145l301 604h170l-301 -604h186v170h152v-170h82v-145h-82v-125h-152v125h-356z" />
<glyph unicode="&#xbd;" horiz-adv-x="1693" d="M82 1126v179l178 153h158v-874h-158v698zM352 0l686 1458h166l-686 -1458h-166zM1071 0v141l328 381q25 29 35 52.5t10 54.5q0 51 -27.5 81.5t-81.5 30.5q-41 0 -74.5 -23.5t-33.5 -88.5h-156q0 119 75 186.5t189 67.5q117 0 192 -67.5t75 -186.5q0 -63 -25 -105.5 t-70 -95.5l-247 -287h342v-141h-531z" />
<glyph unicode="&#xbe;" horiz-adv-x="1728" d="M92 831h158q2 -59 39 -87.5t84 -28.5q53 0 86 32.5t33 92.5q0 55 -32 89t-93 34h-23v135h23q59 0 86.5 32.5t27.5 79.5q0 57 -32.5 86t-77.5 29q-47 0 -77 -27.5t-34 -78.5h-156q4 117 80 182t187 65q57 0 106 -18t84 -51t55.5 -79t20.5 -101q0 -72 -28.5 -116t-73.5 -67 q47 -25 80.5 -72t33.5 -126q0 -66 -22.5 -115t-60.5 -82t-88 -49.5t-105 -16.5q-53 0 -103.5 14.5t-89.5 46.5t-63.5 80.5t-24.5 116.5zM455 0l686 1458h166l-686 -1458h-166zM1059 125v145l299 604h172l-301 -604h186v170h150v-170h82v-145h-82v-125h-150v125h-356z" />
<glyph unicode="&#xbf;" horiz-adv-x="1046" d="M84 -39q0 74 27.5 134.5t68.5 117.5l160 221q16 23 26.5 54.5t10.5 56.5v61h209v-74q0 -63 -17.5 -108t-54.5 -94l-158 -215q-29 -37 -46 -75t-17 -81q0 -86 54 -144.5t145 -58.5q96 0 148 60.5t52 144.5h209q0 -86 -31.5 -158.5t-87 -125t-130 -81t-160.5 -28.5 q-84 0 -158 27.5t-129 79t-88 124t-33 162.5zM367 815v223h229v-223h-229z" />
<glyph unicode="&#xc0;" horiz-adv-x="1280" d="M16 0l535 1458h178l535 -1458h-236l-100 293h-576l-100 -293h-236zM354 1931h232l153 -332h-157zM418 481h448l-221 647z" />
<glyph unicode="&#xc1;" horiz-adv-x="1280" d="M16 0l535 1458h178l535 -1458h-236l-100 293h-576l-100 -293h-236zM418 481h448l-221 647zM528 1599l154 332h231l-227 -332h-158z" />
<glyph unicode="&#xc2;" horiz-adv-x="1280" d="M16 0l535 1458h178l535 -1458h-236l-100 293h-576l-100 -293h-236zM283 1599l264 330h176l264 -330h-174l-178 199l-178 -199h-174zM418 481h448l-221 647z" />
<glyph unicode="&#xc3;" horiz-adv-x="1280" d="M16 0l535 1458h178l535 -1458h-236l-100 293h-576l-100 -293h-236zM281 1747q70 70 116.5 91.5t96.5 21.5q45 0 78.5 -12.5t74.5 -37.5q31 -18 56.5 -28t56.5 -10q25 0 52.5 11t68.5 52l98 -96q-70 -70 -118 -91.5t-95 -21.5q-45 0 -79 12.5t-75 34.5q-29 16 -56.5 27.5 t-57.5 11.5q-27 0 -51.5 -9t-67.5 -52zM418 481h448l-221 647z" />
<glyph unicode="&#xc4;" horiz-adv-x="1280" d="M16 0l535 1458h178l535 -1458h-236l-100 293h-576l-100 -293h-236zM319 1610v221h189v-221h-189zM418 481h448l-221 647zM762 1610v221h188v-221h-188z" />
<glyph unicode="&#xc5;" horiz-adv-x="1280" d="M16 0l535 1458h178l535 -1458h-236l-100 293h-576l-100 -293h-236zM379 1792q0 53 20.5 99t55 81t81 55.5t99.5 20.5t99 -20.5t81 -55.5t55.5 -81t20.5 -99t-20.5 -99t-55.5 -81t-81 -55.5t-99 -20.5t-99.5 20.5t-81 55.5t-55 81t-20.5 99zM418 481h448l-221 647z M504 1792q0 -53 39 -91t92 -38t92 38t39 91t-39 91t-92 38t-92 -38t-39 -91z" />
<glyph unicode="&#xc6;" horiz-adv-x="1949" d="M10 0l766 1458h1061v-198h-711v-429h607v-198h-607v-434h711v-199h-932v332h-481l-172 -332h-242zM520 520h385v740z" />
<glyph unicode="&#xc7;" horiz-adv-x="1286" d="M137 729q0 104 2 189.5t15.5 155t42 129t82.5 112.5q76 76 172 115.5t211 39.5q203 0 342 -114.5t178 -333.5h-226q-27 111 -99.5 180.5t-194.5 69.5q-66 0 -121.5 -23.5t-94.5 -64.5q-27 -29 -44 -63t-26 -84t-13.5 -123.5t-4.5 -184.5t4.5 -184.5t13.5 -123.5t26.5 -84 t43.5 -63q39 -41 94.5 -64.5t121.5 -23.5q123 0 196.5 70t99.5 180h224q-18 -109 -64.5 -192.5t-115 -141t-155.5 -86t-185 -28.5q-115 0 -211.5 40t-171.5 115q-53 53 -82 112.5t-42.5 129.5t-15.5 155t-2 189zM455 -432l143 301h168l-104 -301h-207z" />
<glyph unicode="&#xc8;" horiz-adv-x="1234" d="M190 0v1458h932v-198h-710v-426h606v-197h-606v-438h710v-199h-932zM358 1931h232l153 -332h-157z" />
<glyph unicode="&#xc9;" horiz-adv-x="1234" d="M190 0v1458h932v-198h-710v-426h606v-197h-606v-438h710v-199h-932zM530 1599l154 332h231l-227 -332h-158z" />
<glyph unicode="&#xca;" horiz-adv-x="1234" d="M190 0v1458h932v-198h-710v-426h606v-197h-606v-438h710v-199h-932zM285 1599l264 330h176l264 -330h-174l-178 199l-178 -199h-174z" />
<glyph unicode="&#xcb;" horiz-adv-x="1234" d="M190 0v1458h932v-198h-710v-426h606v-197h-606v-438h710v-199h-932zM322 1610v221h188v-221h-188zM764 1610v221h188v-221h-188z" />
<glyph unicode="&#xcc;" horiz-adv-x="602" d="M-4 1931h231l154 -332h-158zM190 0v1458h222v-1458h-222z" />
<glyph unicode="&#xcd;" horiz-adv-x="602" d="M190 0v1458h222v-1458h-222zM190 1599l154 332h231l-227 -332h-158z" />
<glyph unicode="&#xce;" horiz-adv-x="602" d="M-49 1599l264 330h176l264 -330h-174l-178 199l-178 -199h-174zM190 0v1458h222v-1458h-222z" />
<glyph unicode="&#xcf;" horiz-adv-x="602" d="M-8 1610v221h188v-221h-188zM190 0v1458h222v-1458h-222zM434 1610v221h189v-221h-189z" />
<glyph unicode="&#xd0;" horiz-adv-x="1400" d="M78 651v170h151v637h512q260 0 412 -194q41 -53 63.5 -103.5t33 -111t12.5 -137t2 -183.5q0 -113 -2 -191.5t-13.5 -139t-34 -108.5t-61.5 -97q-70 -86 -174.5 -139.5t-243.5 -53.5h-506v651h-151zM451 197h264q184 0 272 129q18 27 29.5 54.5t16.5 69.5t7 106.5t2 166.5 q0 98 -2 164.5t-8 111.5t-19.5 76t-33.5 60q-47 66 -109.5 96.5t-154.5 30.5h-264v-441h282v-170h-282v-454z" />
<glyph unicode="&#xd1;" horiz-adv-x="1478" d="M190 0v1458h203l674 -1024v1024h221v-1458h-203l-673 1026v-1026h-222zM387 1747q70 70 117 91.5t96 21.5q45 0 79 -12.5t75 -37.5q31 -18 56.5 -28t55.5 -10q25 0 52.5 11t68.5 52l98 -96q-70 -70 -117.5 -91.5t-95.5 -21.5q-45 0 -78.5 12.5t-74.5 34.5 q-29 16 -56.5 27.5t-58.5 11.5q-27 0 -51.5 -9t-67.5 -52z" />
<glyph unicode="&#xd2;" horiz-adv-x="1323" d="M137 729q0 104 2 189.5t15.5 155t42 129t82.5 112.5q76 76 171 115.5t212 39.5t213 -39.5t172 -115.5q53 -53 81.5 -112.5t41 -129t14.5 -154.5t2 -190q0 -104 -2 -189t-14.5 -155t-41 -129t-81.5 -113q-76 -76 -172.5 -115.5t-212.5 -39.5q-117 0 -212.5 40t-170.5 115 q-53 53 -82 112.5t-42.5 129.5t-15.5 155t-2 189zM358 729q0 -111 3.5 -183.5t12.5 -122.5t26.5 -84t43.5 -63q39 -41 95.5 -65.5t122.5 -24.5t122 25t95 65q27 29 44 63t26 84t12.5 122.5t3.5 183.5t-3.5 183.5t-12.5 122.5t-26.5 84t-43.5 63q-39 41 -95.5 65.5 t-121.5 24.5q-66 0 -122.5 -24.5t-95.5 -65.5q-27 -29 -44 -63t-26 -84t-12.5 -122.5t-3.5 -183.5zM383 1931h231l154 -332h-158z" />
<glyph unicode="&#xd3;" horiz-adv-x="1323" d="M137 729q0 104 2 189.5t15.5 155t42 129t82.5 112.5q76 76 171 115.5t212 39.5t213 -39.5t172 -115.5q53 -53 81.5 -112.5t41 -129t14.5 -154.5t2 -190q0 -104 -2 -189t-14.5 -155t-41 -129t-81.5 -113q-76 -76 -172.5 -115.5t-212.5 -39.5q-117 0 -212.5 40t-170.5 115 q-53 53 -82 112.5t-42.5 129.5t-15.5 155t-2 189zM358 729q0 -111 3.5 -183.5t12.5 -122.5t26.5 -84t43.5 -63q39 -41 95.5 -65.5t122.5 -24.5t122 25t95 65q27 29 44 63t26 84t12.5 122.5t3.5 183.5t-3.5 183.5t-12.5 122.5t-26.5 84t-43.5 63q-39 41 -95.5 65.5 t-121.5 24.5q-66 0 -122.5 -24.5t-95.5 -65.5q-27 -29 -44 -63t-26 -84t-12.5 -122.5t-3.5 -183.5zM555 1599l154 332h231l-227 -332h-158z" />
<glyph unicode="&#xd4;" horiz-adv-x="1323" d="M137 729q0 104 2 189.5t15.5 155t42 129t82.5 112.5q76 76 171 115.5t212 39.5t213 -39.5t172 -115.5q53 -53 81.5 -112.5t41 -129t14.5 -154.5t2 -190q0 -104 -2 -189t-14.5 -155t-41 -129t-81.5 -113q-76 -76 -172.5 -115.5t-212.5 -39.5q-117 0 -212.5 40t-170.5 115 q-53 53 -82 112.5t-42.5 129.5t-15.5 155t-2 189zM309 1599l264 330h177l264 -330h-174l-178 199l-179 -199h-174zM358 729q0 -111 3.5 -183.5t12.5 -122.5t26.5 -84t43.5 -63q39 -41 95.5 -65.5t122.5 -24.5t122 25t95 65q27 29 44 63t26 84t12.5 122.5t3.5 183.5 t-3.5 183.5t-12.5 122.5t-26.5 84t-43.5 63q-39 41 -95.5 65.5t-121.5 24.5q-66 0 -122.5 -24.5t-95.5 -65.5q-27 -29 -44 -63t-26 -84t-12.5 -122.5t-3.5 -183.5z" />
<glyph unicode="&#xd5;" horiz-adv-x="1323" d="M137 729q0 104 2 189.5t15.5 155t42 129t82.5 112.5q76 76 171 115.5t212 39.5t213 -39.5t172 -115.5q53 -53 81.5 -112.5t41 -129t14.5 -154.5t2 -190q0 -104 -2 -189t-14.5 -155t-41 -129t-81.5 -113q-76 -76 -172.5 -115.5t-212.5 -39.5q-117 0 -212.5 40t-170.5 115 q-53 53 -82 112.5t-42.5 129.5t-15.5 155t-2 189zM309 1747q70 70 117 91.5t96 21.5q45 0 79 -12.5t75 -37.5q31 -18 56.5 -28t55.5 -10q25 0 52.5 11t68.5 52l99 -96q-70 -70 -118 -91.5t-95 -21.5q-45 0 -79 12.5t-75 34.5q-29 16 -56.5 27.5t-58.5 11.5q-27 0 -51 -9 t-67 -52zM358 729q0 -111 3.5 -183.5t12.5 -122.5t26.5 -84t43.5 -63q39 -41 95.5 -65.5t122.5 -24.5t122 25t95 65q27 29 44 63t26 84t12.5 122.5t3.5 183.5t-3.5 183.5t-12.5 122.5t-26.5 84t-43.5 63q-39 41 -95.5 65.5t-121.5 24.5q-66 0 -122.5 -24.5t-95.5 -65.5 q-27 -29 -44 -63t-26 -84t-12.5 -122.5t-3.5 -183.5z" />
<glyph unicode="&#xd6;" horiz-adv-x="1323" d="M137 729q0 104 2 189.5t15.5 155t42 129t82.5 112.5q76 76 171 115.5t212 39.5t213 -39.5t172 -115.5q53 -53 81.5 -112.5t41 -129t14.5 -154.5t2 -190q0 -104 -2 -189t-14.5 -155t-41 -129t-81.5 -113q-76 -76 -172.5 -115.5t-212.5 -39.5q-117 0 -212.5 40t-170.5 115 q-53 53 -82 112.5t-42.5 129.5t-15.5 155t-2 189zM346 1610v221h189v-221h-189zM358 729q0 -111 3.5 -183.5t12.5 -122.5t26.5 -84t43.5 -63q39 -41 95.5 -65.5t122.5 -24.5t122 25t95 65q27 29 44 63t26 84t12.5 122.5t3.5 183.5t-3.5 183.5t-12.5 122.5t-26.5 84t-43.5 63 q-39 41 -95.5 65.5t-121.5 24.5q-66 0 -122.5 -24.5t-95.5 -65.5q-27 -29 -44 -63t-26 -84t-12.5 -122.5t-3.5 -183.5zM788 1610v221h189v-221h-189z" />
<glyph unicode="&#xd7;" d="M117 270l299 299l-299 299l131 131l297 -299l299 299l131 -131l-299 -299l299 -299l-131 -129l-299 297l-297 -297z" />
<glyph unicode="&#xd8;" horiz-adv-x="1335" d="M137 729q0 104 2 189.5t15.5 155t42 129t82.5 112.5q76 76 171 115.5t212 39.5q68 0 130 -14t115 -41l62 133h170l-107 -221q4 -4 7 -6t8 -6q53 -53 81.5 -112.5t41 -129t14.5 -154.5t2 -190q0 -104 -2 -189t-14.5 -155t-41 -129t-81.5 -113q-76 -76 -172.5 -115.5 t-212.5 -39.5q-68 0 -129.5 14t-114.5 41l-64 -133h-168l105 221l-12 12q-53 53 -82 112.5t-42.5 129.5t-15.5 155t-2 189zM360 729q0 -82 2.5 -143.5t6.5 -107.5t12 -78.5t20 -59.5l424 887q-74 45 -163 45q-66 0 -121.5 -24.5t-94.5 -65.5q-27 -29 -44 -63t-26 -84 t-12.5 -122.5t-3.5 -183.5zM500 231q72 -45 162 -45q66 0 122 25t95 65q27 29 44 63t26 84t12.5 122.5t3.5 183.5q0 82 -1 142.5t-6.5 106.5t-13.5 80t-20 60z" />
<glyph unicode="&#xd9;" horiz-adv-x="1382" d="M168 492v966h221v-956q0 -147 82 -231.5t219 -84.5t220 84t83 232v956h221v-966q0 -113 -39.5 -206t-110.5 -159t-167 -102.5t-207 -36.5t-207 36.5t-165.5 102.5t-109.5 159t-40 206zM414 1931h231l154 -332h-158z" />
<glyph unicode="&#xda;" horiz-adv-x="1382" d="M168 492v966h221v-956q0 -147 82 -231.5t219 -84.5t220 84t83 232v956h221v-966q0 -113 -39.5 -206t-110.5 -159t-167 -102.5t-207 -36.5t-207 36.5t-165.5 102.5t-109.5 159t-40 206zM586 1599l153 332h232l-228 -332h-157z" />
<glyph unicode="&#xdb;" horiz-adv-x="1382" d="M168 492v966h221v-956q0 -147 82 -231.5t219 -84.5t220 84t83 232v956h221v-966q0 -113 -39.5 -206t-110.5 -159t-167 -102.5t-207 -36.5t-207 36.5t-165.5 102.5t-109.5 159t-40 206zM340 1599l264 330h176l264 -330h-174l-178 199l-178 -199h-174z" />
<glyph unicode="&#xdc;" horiz-adv-x="1382" d="M168 492v966h221v-956q0 -147 82 -231.5t219 -84.5t220 84t83 232v956h221v-966q0 -113 -39.5 -206t-110.5 -159t-167 -102.5t-207 -36.5t-207 36.5t-165.5 102.5t-109.5 159t-40 206zM377 1610v221h188v-221h-188zM819 1610v221h189v-221h-189z" />
<glyph unicode="&#xdd;" horiz-adv-x="1114" d="M10 1458h242l305 -641l305 641h242l-436 -858v-600h-222v600zM451 1599l153 332h232l-228 -332h-157z" />
<glyph unicode="&#xde;" horiz-adv-x="1304" d="M190 0v1458h222v-280h331q106 0 192.5 -34t148 -92.5t94 -140.5t32.5 -176q0 -96 -32.5 -176t-94 -139.5t-147.5 -92t-193 -32.5h-331v-295h-222zM412 494h317q117 0 187.5 62t70.5 179t-70.5 180.5t-187.5 63.5h-317v-485z" />
<glyph unicode="&#xdf;" horiz-adv-x="1157" d="M166 0v1069q0 100 31.5 176t90 127t139.5 76t177 25q88 0 165 -20.5t134.5 -63.5t89 -110t31.5 -157q0 -92 -36 -147t-91 -90q66 -35 97.5 -86t31.5 -150v-338q0 -74 -21.5 -133t-62.5 -98q-43 -41 -98.5 -60.5t-134.5 -19.5h-109v178h66q39 0 61.5 8.5t44.5 26.5 q43 33 43 117v319q0 74 -37 109q-39 39 -106 39h-72v166h64q66 0 108.5 38.5t42.5 114.5q0 37 -14.5 69t-36.5 54q-51 49 -166 49q-123 0 -172 -62.5t-49 -168.5v-1057h-211z" />
<glyph unicode="&#xe0;" horiz-adv-x="1085" d="M88 305q0 131 89 215t269 84h275v74q0 98 -52.5 146t-174.5 48q-86 0 -135.5 -22.5t-92.5 -77.5l-137 129q74 86 159 118t214 32q428 0 428 -357v-694h-205v94q-57 -57 -118.5 -81.5t-157.5 -24.5q-98 0 -165 23.5t-114 70.5q-82 86 -82 223zM248 1559h231l154 -332h-158 zM291 309q0 -72 46 -109.5t144 -37.5q59 0 106.5 9t88.5 50q45 45 45 154v84h-244q-92 0 -139 -39t-47 -111z" />
<glyph unicode="&#xe1;" horiz-adv-x="1085" d="M88 305q0 131 89 215t269 84h275v74q0 98 -52.5 146t-174.5 48q-86 0 -135.5 -22.5t-92.5 -77.5l-137 129q74 86 159 118t214 32q428 0 428 -357v-694h-205v94q-57 -57 -118.5 -81.5t-157.5 -24.5q-98 0 -165 23.5t-114 70.5q-82 86 -82 223zM291 309q0 -72 46 -109.5 t144 -37.5q59 0 106.5 9t88.5 50q45 45 45 154v84h-244q-92 0 -139 -39t-47 -111zM420 1227l153 332h232l-227 -332h-158z" />
<glyph unicode="&#xe2;" horiz-adv-x="1085" d="M88 305q0 131 89 215t269 84h275v74q0 98 -52.5 146t-174.5 48q-86 0 -135.5 -22.5t-92.5 -77.5l-137 129q74 86 159 118t214 32q428 0 428 -357v-694h-205v94q-57 -57 -118.5 -81.5t-157.5 -24.5q-98 0 -165 23.5t-114 70.5q-82 86 -82 223zM174 1227l264 329h176 l265 -329h-174l-179 198l-178 -198h-174zM291 309q0 -72 46 -109.5t144 -37.5q59 0 106.5 9t88.5 50q45 45 45 154v84h-244q-92 0 -139 -39t-47 -111z" />
<glyph unicode="&#xe3;" horiz-adv-x="1085" d="M88 305q0 131 89 215t269 84h275v74q0 98 -52.5 146t-174.5 48q-86 0 -135.5 -22.5t-92.5 -77.5l-137 129q74 86 159 118t214 32q428 0 428 -357v-694h-205v94q-57 -57 -118.5 -81.5t-157.5 -24.5q-98 0 -165 23.5t-114 70.5q-82 86 -82 223zM174 1374q70 70 117 91.5 t96 21.5q45 0 79 -12.5t75 -36.5q31 -18 56.5 -28.5t55.5 -10.5q25 0 52.5 11t68.5 52l98 -96q-70 -70 -117.5 -91.5t-95.5 -21.5q-45 0 -78.5 12.5t-74.5 34.5q-29 16 -56.5 27.5t-58.5 11.5q-27 0 -51.5 -9t-67.5 -52zM291 309q0 -72 46 -109.5t144 -37.5q59 0 106.5 9 t88.5 50q45 45 45 154v84h-244q-92 0 -139 -39t-47 -111z" />
<glyph unicode="&#xe4;" horiz-adv-x="1085" d="M88 305q0 131 89 215t269 84h275v74q0 98 -52.5 146t-174.5 48q-86 0 -135.5 -22.5t-92.5 -77.5l-137 129q74 86 159 118t214 32q428 0 428 -357v-694h-205v94q-57 -57 -118.5 -81.5t-157.5 -24.5q-98 0 -165 23.5t-114 70.5q-82 86 -82 223zM211 1237v221h188v-221h-188 zM291 309q0 -72 46 -109.5t144 -37.5q59 0 106.5 9t88.5 50q45 45 45 154v84h-244q-92 0 -139 -39t-47 -111zM653 1237v221h189v-221h-189z" />
<glyph unicode="&#xe5;" horiz-adv-x="1085" d="M88 305q0 131 89 215t269 84h275v74q0 98 -52.5 146t-174.5 48q-86 0 -135.5 -22.5t-92.5 -77.5l-137 129q74 86 159 118t214 32q428 0 428 -357v-694h-205v94q-57 -57 -118.5 -81.5t-157.5 -24.5q-98 0 -165 23.5t-114 70.5q-82 86 -82 223zM270 1436q0 53 20.5 99 t55.5 81t81 55.5t99 20.5t99.5 -20.5t81 -55.5t55 -81t20.5 -99t-20.5 -99.5t-55 -81t-80.5 -55t-100 -20.5q-53 0 -99 20.5t-81 55t-55.5 81t-20.5 99.5zM291 309q0 -72 46 -109.5t144 -37.5q59 0 106.5 9t88.5 50q45 45 45 154v84h-244q-92 0 -139 -39t-47 -111zM395 1436 q0 -53 39 -91t92 -38t92 37.5t39 91.5q0 53 -38.5 91t-92.5 38q-53 0 -92 -38t-39 -91z" />
<glyph unicode="&#xe6;" horiz-adv-x="1714" d="M88 305q0 131 89 215t269 84h275v74q0 98 -52.5 146t-174.5 48q-86 0 -135.5 -22.5t-92.5 -77.5l-137 129q74 86 159 118t214 32q256 0 352 -138q113 137 307 138q104 0 186.5 -37t138.5 -102.5t86 -157.5t30 -203v-92h-674q0 -135 67.5 -213t196.5 -78q88 0 142.5 25.5 t109.5 80.5l133 -124q-41 -41 -81 -71t-86 -50.5t-100.5 -30.5t-121.5 -10q-115 0 -209 37.5t-158 124.5q-78 -96 -165 -129t-207 -33q-98 0 -165 23.5t-114 70.5q-41 41 -61.5 99t-20.5 124zM291 309q0 -72 46 -109.5t144 -37.5q59 0 106.5 9t88.5 50q45 45 45 154v84h-244 q-92 0 -139 -39t-47 -111zM928 604h467q-2 47 -6.5 77t-20.5 64q-25 59 -79 95.5t-128 36.5t-127 -36t-78 -96q-16 -35 -21 -64.5t-7 -76.5z" />
<glyph unicode="&#xe7;" horiz-adv-x="993" d="M113 520q0 145 40 246.5t104.5 164t147 91.5t170.5 29q109 0 189 -34t154 -112l-144 -139q-49 53 -93 75.5t-106 22.5q-123 0 -192 -92q-35 -43 -48 -101.5t-13 -150.5t13 -151.5t48 -102.5q70 -92 192 -92q61 0 105.5 22.5t93.5 75.5l144 -137q-74 -78 -154 -112.5 t-189 -34.5q-88 0 -170.5 28.5t-147 92t-104.5 165t-40 246.5zM342 -432l143 301h168l-104 -301h-207z" />
<glyph unicode="&#xe8;" horiz-adv-x="1103" d="M113 520q0 254 119.5 392.5t320.5 138.5q104 0 186 -37t138.5 -102.5t86 -157.5t29.5 -203v-92h-674q0 -135 68 -213t197 -78q88 0 142 25.5t110 80.5l133 -124q-41 -41 -81 -71t-86 -50.5t-100.5 -30.5t-121.5 -10q-98 0 -183.5 27.5t-148 90t-99 165t-36.5 249.5z M281 1559h231l154 -332h-158zM319 604h467q-2 47 -7 77t-21 64q-25 59 -78 95.5t-127 36.5t-128 -36t-79 -96q-16 -35 -20.5 -64.5t-6.5 -76.5z" />
<glyph unicode="&#xe9;" horiz-adv-x="1103" d="M113 520q0 254 119.5 392.5t320.5 138.5q104 0 186 -37t138.5 -102.5t86 -157.5t29.5 -203v-92h-674q0 -135 68 -213t197 -78q88 0 142 25.5t110 80.5l133 -124q-41 -41 -81 -71t-86 -50.5t-100.5 -30.5t-121.5 -10q-98 0 -183.5 27.5t-148 90t-99 165t-36.5 249.5z M319 604h467q-2 47 -7 77t-21 64q-25 59 -78 95.5t-127 36.5t-128 -36t-79 -96q-16 -35 -20.5 -64.5t-6.5 -76.5zM453 1227l153 332h232l-228 -332h-157z" />
<glyph unicode="&#xea;" horiz-adv-x="1103" d="M113 520q0 254 119.5 392.5t320.5 138.5q104 0 186 -37t138.5 -102.5t86 -157.5t29.5 -203v-92h-674q0 -135 68 -213t197 -78q88 0 142 25.5t110 80.5l133 -124q-41 -41 -81 -71t-86 -50.5t-100.5 -30.5t-121.5 -10q-98 0 -183.5 27.5t-148 90t-99 165t-36.5 249.5z M207 1227l264 329h176l264 -329h-174l-178 198l-178 -198h-174zM319 604h467q-2 47 -7 77t-21 64q-25 59 -78 95.5t-127 36.5t-128 -36t-79 -96q-16 -35 -20.5 -64.5t-6.5 -76.5z" />
<glyph unicode="&#xeb;" horiz-adv-x="1103" d="M113 520q0 254 119.5 392.5t320.5 138.5q104 0 186 -37t138.5 -102.5t86 -157.5t29.5 -203v-92h-674q0 -135 68 -213t197 -78q88 0 142 25.5t110 80.5l133 -124q-41 -41 -81 -71t-86 -50.5t-100.5 -30.5t-121.5 -10q-98 0 -183.5 27.5t-148 90t-99 165t-36.5 249.5z M244 1237v221h188v-221h-188zM319 604h467q-2 47 -7 77t-21 64q-25 59 -78 95.5t-127 36.5t-128 -36t-79 -96q-16 -35 -20.5 -64.5t-6.5 -76.5zM686 1237v221h188v-221h-188z" />
<glyph unicode="&#xec;" horiz-adv-x="540" d="M-27 1559h232l153 -332h-157zM166 0v1038h209v-1038h-209z" />
<glyph unicode="&#xed;" horiz-adv-x="540" d="M166 0v1038h209v-1038h-209zM166 1227l153 332h232l-227 -332h-158z" />
<glyph unicode="&#xee;" horiz-adv-x="540" d="M-76 1227l264 329h177l264 -329h-174l-179 198l-178 -198h-174zM166 0v1038h209v-1038h-209z" />
<glyph unicode="&#xef;" horiz-adv-x="540" d="M-43 1237v221h188v-221h-188zM166 0v1038h209v-1038h-209zM399 1237v221h189v-221h-189z" />
<glyph unicode="&#xf0;" horiz-adv-x="1099" d="M125 510q0 129 23.5 227.5t97.5 173.5q80 82 213 105q37 6 78 6t77 -10l-92 166h-237v147h159l-79 143h221l80 -143h178v-147h-103l105 -193q39 -72 64.5 -128t40 -109.5t19.5 -109.5t5 -128q0 -129 -23.5 -227.5t-97.5 -173.5q-49 -53 -125 -87t-180 -34t-179 33.5 t-124 87.5q-74 76 -97.5 174t-23.5 227zM334 510q0 -82 10 -155.5t57 -121.5q59 -59 148 -59q45 0 83 15.5t66 43.5q47 47 57.5 121t10.5 156t-10.5 155.5t-57.5 120.5q-29 29 -66.5 44.5t-82.5 15.5q-88 0 -148 -60q-47 -47 -57 -120.5t-10 -155.5z" />
<glyph unicode="&#xf1;" horiz-adv-x="1163" d="M166 0v1038h205v-104q53 59 125.5 88t150.5 29q80 0 144.5 -25t111.5 -70q59 -59 82 -131.5t23 -160.5v-664h-209v633q0 121 -60.5 176t-148.5 55t-151.5 -56t-63.5 -175v-633h-209zM236 1374q70 70 116.5 91.5t96.5 21.5q45 0 78.5 -12.5t74.5 -36.5q31 -18 56.5 -28.5 t56.5 -10.5q25 0 52.5 11t68.5 52l98 -96q-70 -70 -118 -91.5t-95 -21.5q-45 0 -79 12.5t-75 34.5q-29 16 -56.5 27.5t-57.5 11.5q-27 0 -51.5 -9t-67.5 -52z" />
<glyph unicode="&#xf2;" horiz-adv-x="1099" d="M117 520q0 131 24.5 230.5t98.5 177.5q51 53 126.5 88t182.5 35q106 0 183 -35t128 -88q74 -78 98.5 -177.5t24.5 -230.5q0 -133 -24.5 -232.5t-98.5 -176.5q-51 -53 -128 -88t-183 -35t-182 34.5t-127 88.5q-74 78 -98.5 177t-24.5 232zM256 1559h231l154 -332h-158z M326 520q0 -86 12 -161.5t59 -122.5q61 -61 152 -62q92 0 153 62q47 47 59.5 122.5t12.5 161.5t-12 162t-60 123q-59 59 -153 59q-92 0 -152 -59q-47 -47 -59 -123t-12 -162z" />
<glyph unicode="&#xf3;" horiz-adv-x="1099" d="M117 520q0 131 24.5 230.5t98.5 177.5q51 53 126.5 88t182.5 35q106 0 183 -35t128 -88q74 -78 98.5 -177.5t24.5 -230.5q0 -133 -24.5 -232.5t-98.5 -176.5q-51 -53 -128 -88t-183 -35t-182 34.5t-127 88.5q-74 78 -98.5 177t-24.5 232zM326 520q0 -86 12 -161.5 t59 -122.5q61 -61 152 -62q92 0 153 62q47 47 59.5 122.5t12.5 161.5t-12 162t-60 123q-59 59 -153 59q-92 0 -152 -59q-47 -47 -59 -123t-12 -162zM442 1227l154 332h231l-227 -332h-158z" />
<glyph unicode="&#xf4;" horiz-adv-x="1099" d="M117 520q0 131 24.5 230.5t98.5 177.5q51 53 126.5 88t182.5 35q106 0 183 -35t128 -88q74 -78 98.5 -177.5t24.5 -230.5q0 -133 -24.5 -232.5t-98.5 -176.5q-51 -53 -128 -88t-183 -35t-182 34.5t-127 88.5q-74 78 -98.5 177t-24.5 232zM197 1227l264 329h176l264 -329 h-174l-178 198l-178 -198h-174zM326 520q0 -86 12 -161.5t59 -122.5q61 -61 152 -62q92 0 153 62q47 47 59.5 122.5t12.5 161.5t-12 162t-60 123q-59 59 -153 59q-92 0 -152 -59q-47 -47 -59 -123t-12 -162z" />
<glyph unicode="&#xf5;" horiz-adv-x="1099" d="M117 520q0 131 24.5 230.5t98.5 177.5q51 53 126.5 88t182.5 35q106 0 183 -35t128 -88q74 -78 98.5 -177.5t24.5 -230.5q0 -133 -24.5 -232.5t-98.5 -176.5q-51 -53 -128 -88t-183 -35t-182 34.5t-127 88.5q-74 78 -98.5 177t-24.5 232zM197 1374q70 70 116.5 91.5 t96.5 21.5q45 0 78.5 -12.5t74.5 -36.5q31 -18 56.5 -28.5t56.5 -10.5q25 0 52.5 11t68.5 52l98 -96q-70 -70 -118 -91.5t-95 -21.5q-45 0 -79 12.5t-75 34.5q-29 16 -56.5 27.5t-57.5 11.5q-27 0 -51.5 -9t-67.5 -52zM326 520q0 -86 12 -161.5t59 -122.5q61 -61 152 -62 q92 0 153 62q47 47 59.5 122.5t12.5 161.5t-12 162t-60 123q-59 59 -153 59q-92 0 -152 -59q-47 -47 -59 -123t-12 -162z" />
<glyph unicode="&#xf6;" horiz-adv-x="1099" d="M117 520q0 131 24.5 230.5t98.5 177.5q51 53 126.5 88t182.5 35q106 0 183 -35t128 -88q74 -78 98.5 -177.5t24.5 -230.5q0 -133 -24.5 -232.5t-98.5 -176.5q-51 -53 -128 -88t-183 -35t-182 34.5t-127 88.5q-74 78 -98.5 177t-24.5 232zM233 1237v221h189v-221h-189z M326 520q0 -86 12 -161.5t59 -122.5q61 -61 152 -62q92 0 153 62q47 47 59.5 122.5t12.5 161.5t-12 162t-60 123q-59 59 -153 59q-92 0 -152 -59q-47 -47 -59 -123t-12 -162zM676 1237v221h188v-221h-188z" />
<glyph unicode="&#xf7;" d="M98 471v195h893v-195h-893zM434 68v223h223v-223h-223zM434 848v223h223v-223h-223z" />
<glyph unicode="&#xf8;" horiz-adv-x="1099" d="M117 520q0 131 24.5 230.5t98.5 177.5q51 53 126.5 88t182.5 35q66 0 119 -14.5t96 -37.5l76 129h141l-121 -200q74 -78 98.5 -177.5t24.5 -230.5q0 -133 -24.5 -232.5t-98.5 -176.5q-51 -53 -128 -88t-183 -35q-66 0 -118 14t-95 37l-76 -129h-141l119 203 q-74 78 -97.5 177t-23.5 230zM326 520q0 -61 5 -118.5t25 -104.5l316 532q-53 35 -123 35q-92 0 -152 -59q-47 -47 -59 -123t-12 -162zM428 211q53 -37 121 -37q92 0 153 62q47 47 59.5 122.5t12.5 161.5q0 61 -5 118.5t-26 104.5z" />
<glyph unicode="&#xf9;" horiz-adv-x="1163" d="M156 375v663h209v-632q0 -121 60 -176.5t148 -55.5q43 0 83 13.5t69 42t46 72.5t17 104v632h209v-1038h-204v104q-53 -59 -126 -87.5t-151 -28.5q-80 0 -144.5 24.5t-111.5 69.5q-59 59 -81.5 132t-22.5 161zM297 1559h231l154 -332h-158z" />
<glyph unicode="&#xfa;" horiz-adv-x="1163" d="M156 375v663h209v-632q0 -121 60 -176.5t148 -55.5q43 0 83 13.5t69 42t46 72.5t17 104v632h209v-1038h-204v104q-53 -59 -126 -87.5t-151 -28.5q-80 0 -144.5 24.5t-111.5 69.5q-59 59 -81.5 132t-22.5 161zM469 1227l154 332h231l-227 -332h-158z" />
<glyph unicode="&#xfb;" horiz-adv-x="1163" d="M156 375v663h209v-632q0 -121 60 -176.5t148 -55.5q43 0 83 13.5t69 42t46 72.5t17 104v632h209v-1038h-204v104q-53 -59 -126 -87.5t-151 -28.5q-80 0 -144.5 24.5t-111.5 69.5q-59 59 -81.5 132t-22.5 161zM223 1227l264 329h177l264 -329h-174l-179 198l-178 -198 h-174z" />
<glyph unicode="&#xfc;" horiz-adv-x="1163" d="M156 375v663h209v-632q0 -121 60 -176.5t148 -55.5q43 0 83 13.5t69 42t46 72.5t17 104v632h209v-1038h-204v104q-53 -59 -126 -87.5t-151 -28.5q-80 0 -144.5 24.5t-111.5 69.5q-59 59 -81.5 132t-22.5 161zM260 1237v221h189v-221h-189zM702 1237v221h189v-221h-189z " />
<glyph unicode="&#xfd;" horiz-adv-x="958" d="M16 1038h222l247 -731l242 731h223l-458 -1245q-29 -82 -76 -129q-43 -43 -98.5 -59.5t-114.5 -16.5h-84v189h53q66 0 96.5 23.5t53.5 86.5l57 162zM373 1227l153 332h232l-228 -332h-157z" />
<glyph unicode="&#xfe;" horiz-adv-x="1134" d="M166 -420v1878h209v-524q57 68 122.5 92.5t149.5 24.5q78 0 143.5 -25t108.5 -68q39 -39 62.5 -90t36 -108.5t15.5 -118.5t3 -121q0 -59 -3 -120.5t-15.5 -120t-36 -109.5t-62.5 -90q-43 -43 -108.5 -67.5t-143.5 -24.5q-84 0 -149.5 25.5t-122.5 92.5v-526h-209z M375 520q0 -70 7 -132t30.5 -110.5t65.5 -76t114 -27.5q70 0 113 27.5t65.5 76t29.5 111t7 131.5q0 70 -7 132.5t-29.5 109.5t-65.5 74.5t-113 27.5q-72 0 -114 -27.5t-65.5 -74.5t-30.5 -109.5t-7 -132.5z" />
<glyph unicode="&#xff;" horiz-adv-x="958" d="M16 1038h222l247 -731l242 731h223l-458 -1245q-29 -82 -76 -129q-43 -43 -98.5 -59.5t-114.5 -16.5h-84v189h53q66 0 96.5 23.5t53.5 86.5l57 162zM164 1237v221h188v-221h-188zM606 1237v221h189v-221h-189z" />
<glyph unicode="&#x152;" horiz-adv-x="2000" d="M137 729q0 104 2 190.5t15.5 157t42 130t82.5 112.5q76 76 169 113.5t209 37.5q88 0 168 -30.5t140 -100.5v119h921v-196h-700v-431h596v-192h-596v-442h702v-197h-923v119q-59 -70 -142.5 -100.5t-165.5 -30.5q-117 0 -210 37.5t-168 113.5q-53 53 -82 112.5 t-42.5 130.5t-15.5 157t-2 190zM360 729q0 -111 3.5 -183.5t12.5 -122.5t26.5 -84t43.5 -63q39 -41 94.5 -65.5t121.5 -24.5t122 25t95 65q27 29 44 63t26 84t12.5 122.5t3.5 183.5t-3.5 183.5t-12.5 122.5t-26.5 84t-43.5 63q-39 41 -95.5 65.5t-121.5 24.5 q-66 0 -121.5 -24.5t-94.5 -65.5q-27 -29 -44 -63t-26 -84t-12.5 -122.5t-3.5 -183.5z" />
<glyph unicode="&#x153;" horiz-adv-x="1765" d="M117 520q0 131 24.5 230.5t98.5 177.5q51 53 126.5 88t182.5 35q115 0 201 -44t135 -122q109 166 327 166q104 0 186.5 -37t138.5 -102.5t86 -157.5t30 -203v-92h-674q0 -135 67.5 -213t196.5 -78q88 0 142.5 25.5t109.5 80.5l133 -124q-41 -41 -80 -71t-85 -50.5 t-100 -30.5t-122 -10q-115 0 -207 39t-151 125q-49 -76 -135 -120t-199 -44q-106 0 -182 34.5t-127 88.5q-74 78 -98.5 177t-24.5 232zM326 520q0 -86 12 -161.5t59 -122.5q61 -61 152 -62q92 0 153 62q47 47 59.5 122.5t12.5 161.5t-12 162t-60 123q-59 59 -153 59 q-92 0 -152 -59q-47 -47 -59 -123t-12 -162zM979 604h467q-2 47 -6 77t-21 64q-25 59 -79 95.5t-128 36.5t-127 -36t-77 -96q-16 -35 -21.5 -64.5t-7.5 -76.5z" />
<glyph unicode="&#x178;" horiz-adv-x="1114" d="M10 1458h242l305 -641l305 641h242l-436 -858v-600h-222v600zM242 1610v221h188v-221h-188zM684 1610v221h188v-221h-188z" />
<glyph unicode="&#x2c6;" horiz-adv-x="1024" d="M160 1227l264 329h176l264 -329h-174l-178 198l-178 -198h-174z" />
<glyph unicode="&#x2dc;" horiz-adv-x="1024" d="M160 1374q70 70 117 91.5t96 21.5q45 0 78.5 -12.5t74.5 -36.5q31 -18 56.5 -28.5t56.5 -10.5q25 0 52.5 11t68.5 52l98 -96q-70 -70 -118 -91.5t-95 -21.5q-45 0 -79 12.5t-74 34.5q-29 16 -56.5 27.5t-58.5 11.5q-27 0 -51.5 -9t-67.5 -52z" />
<glyph unicode="&#x2013;" d="M104 471v195h883v-195h-883z" />
<glyph unicode="&#x2014;" horiz-adv-x="1990" d="M137 473v199h1716v-199h-1716z" />
<glyph unicode="&#x2018;" horiz-adv-x="548" d="M160 1245v213l229 191v-404h-229z" />
<glyph unicode="&#x2019;" horiz-adv-x="548" d="M160 1057v401h229v-215z" />
<glyph unicode="&#x201a;" horiz-adv-x="546" d="M160 -188v403h229v-215z" />
<glyph unicode="&#x201c;" horiz-adv-x="940" d="M160 1245v213l229 191v-404h-229zM551 1245v213l229 191v-404h-229z" />
<glyph unicode="&#x201d;" horiz-adv-x="940" d="M160 1057v401h229v-215zM551 1057v401h229v-215z" />
<glyph unicode="&#x201e;" horiz-adv-x="942" d="M160 -188v403h229v-215zM551 -188v403h229v-215z" />
<glyph unicode="&#x2022;" horiz-adv-x="1048" d="M190 684q0 70 27 130t72 105.5t105.5 72t129.5 26.5q70 0 130.5 -26.5t105.5 -72t71.5 -105.5t26.5 -130t-26.5 -130t-71.5 -105.5t-105.5 -72t-130.5 -26.5t-130 26.5t-105 72t-72 105.5t-27 130z" />
<glyph unicode="&#x2026;" horiz-adv-x="1644" d="M160 0v240h239v-240h-239zM702 0v240h240v-240h-240zM1245 0v240h240v-240h-240z" />
<glyph unicode="&#x2039;" horiz-adv-x="694" d="M76 557l471 469v-252l-219 -217l219 -219v-252z" />
<glyph unicode="&#x203a;" horiz-adv-x="694" d="M147 86v252l222 219l-222 217v252l474 -469z" />
<glyph unicode="&#x20ac;" horiz-adv-x="1394" d="M88 508v137h139v176h-139v137h145q8 115 36 200t100 157q76 76 171 115.5t210 39.5q100 0 187 -29.5t155.5 -86t114.5 -140.5t65 -192h-225q-27 111 -101 181.5t-196 70.5q-66 0 -120.5 -24.5t-94.5 -65.5q-39 -41 -55.5 -89t-22.5 -137h374v-137h-382v-176h382v-137 h-374q6 -92 22.5 -142.5t55.5 -91.5q41 -41 95 -65.5t120 -24.5q123 0 197.5 71t101.5 181h223q-18 -109 -65.5 -192.5t-116 -140t-155.5 -86t-185 -29.5q-115 0 -210.5 40t-170.5 115q-74 74 -100.5 160t-35.5 205h-145z" />
<glyph unicode="&#x2122;" horiz-adv-x="1808" d="M84 1317v141h625v-141h-236v-733h-156v733h-233zM854 584v874h158l256 -497l258 497h157v-874h-157v571l-185 -367h-145l-184 367v-571h-158z" />
<glyph unicode="&#xe000;" horiz-adv-x="1040" d="M0 1040h1040v-1040h-1040v1040z" />
<glyph unicode="&#xfb01;" horiz-adv-x="1193" d="M76 860v160h119v160q0 55 17 107t52 92t88.5 64.5t126.5 24.5h129v-178h-92q-59 0 -86 -31.5t-27 -89.5v-149h205v-160h-205v-860h-208v860h-119zM811 1278v186h223v-186h-223zM817 0v1020h209v-1020h-209z" />
<glyph unicode="&#xfb02;" horiz-adv-x="1282" d="M76 860v160h119v160q0 55 17 107t52 92t88.5 64.5t126.5 24.5h129v-178h-92q-59 0 -86 -31.5t-27 -89.5v-149h205v-160h-205v-860h-208v860h-119zM813 287v1171h209v-1159q0 -59 24.5 -90t88.5 -31h92v-178h-129q-74 0 -128.5 23.5t-89 62.5t-51 91.5t-16.5 109.5z" />
<glyph unicode="&#xfb03;" horiz-adv-x="1884" d="M1503 1243v221h221v-221h-221zM1509 0v1038h209v-1038h-209zM752 860v160h119v160q0 55 17 107t52 92t88.5 64.5t126.5 24.5h131v-178h-92q-59 0 -86.5 -31.5t-27.5 -89.5v-149h206v-160h-206v-860h-209v860h-119zM80 860v160h119v160q0 55 17 107t52 92t88.5 64.5 t126.5 24.5h131v-178h-92q-59 0 -86.5 -31.5t-27.5 -89.5v-149h206v-160h-206v-860h-209v860h-119z" />
<glyph unicode="&#xfb04;" horiz-adv-x="1980" d="M1503 287v1171h209v-1159q0 -59 24.5 -90t87.5 -31h92v-178h-129q-74 0 -128 23.5t-88.5 62.5t-51 91.5t-16.5 109.5zM752 860v160h119v160q0 55 17 107t52 92t88.5 64.5t126.5 24.5h131v-178h-92q-59 0 -86.5 -31.5t-27.5 -89.5v-149h206v-160h-206v-860h-209v860h-119z M80 860v160h119v160q0 55 17 107t52 92t88.5 64.5t126.5 24.5h131v-178h-92q-59 0 -86.5 -31.5t-27.5 -89.5v-149h206v-160h-206v-860h-209v860h-119z" />
</font>
</defs>
</svg>
