<?xml version="1.0" standalone="no"?>
<!DOCTYPE svg PUBLIC "-//W3C//DTD SVG 1.1//EN" "http://www.w3.org/Graphics/SVG/1.1/DTD/svg11.dtd" >
<svg xmlns="http://www.w3.org/2000/svg">
<metadata></metadata>
<defs>
<font id="adineueregular" horiz-adv-x="1146" >
<font-face units-per-em="2048" ascent="1638" descent="-410" />
<missing-glyph horiz-adv-x="409" />
<glyph horiz-adv-x="2048" />
<glyph horiz-adv-x="2048" />
<glyph unicode="&#xd;" horiz-adv-x="2048" />
<glyph unicode=" "  horiz-adv-x="409" />
<glyph unicode="&#x09;" horiz-adv-x="409" />
<glyph unicode="&#xa0;" horiz-adv-x="409" />
<glyph unicode="!" horiz-adv-x="337" d="M82 0v174h174v-174h-174zM82 338v1063h174v-1063h-174z" />
<glyph unicode="&#x22;" horiz-adv-x="618" d="M82 881v520h174l-37 -520h-137zM371 881v520h178l-37 -520h-141z" />
<glyph unicode="#" horiz-adv-x="1212" d="M82 272v146h199l30 377h-229v145h242l24 272h150l-25 -272h315l25 272h152l-25 -272h190v-145h-200l-35 -377h235v-146h-245l-23 -272h-151l22 272h-315l-23 -272h-149l22 272h-186zM430 418h315l31 377h-313z" />
<glyph unicode="$" horiz-adv-x="1005" d="M74 406h192q13 -69 76.5 -117.5t169.5 -48.5q104 0 167.5 45t63.5 112q0 24 -10.5 43.5t-23.5 32.5t-39 24t-42.5 16.5t-50 11.5t-45 7t-43.5 5q-34 4 -57.5 7.5t-62 10.5t-66.5 17.5t-62 25t-58 35.5t-45 47.5t-31.5 62.5t-10.5 78q0 131 104 219t285 88 q174 0 278 -81.5t126 -223.5h-182q-13 65 -60 105.5t-155 40.5q-99 0 -157.5 -33.5t-58.5 -91.5q0 -24 11.5 -44t31 -33.5t45.5 -24t56 -17.5t62 -12t63 -10q24 -3 35 -5q65 -10 112 -21.5t95.5 -33t78.5 -51.5t49 -76.5t19 -107.5q0 -106 -56.5 -181t-151 -110t-218.5 -35 q-193 0 -304 84.5t-130 239.5zM346 -82v1374h107v-1374h-107zM537 -82v1374h106v-1374h-106z" />
<glyph unicode="%" horiz-adv-x="1642" d="M102 913v222q0 115 80.5 195.5t196.5 80.5q117 0 197.5 -80t80.5 -196v-222q0 -115 -80.5 -194.5t-197.5 -79.5q-116 0 -196.5 79.5t-80.5 194.5zM248 913q0 -53 37.5 -94t93.5 -41q55 0 94 41t39 94v222q0 55 -38.5 95t-94.5 40q-57 0 -94 -40t-37 -95v-222zM451 0 l573 1401h178l-573 -1401h-178zM987 254v223q0 115 80.5 195t196.5 80q117 0 197.5 -79.5t80.5 -195.5v-223q0 -115 -81 -196t-197 -81q-115 0 -196 81.5t-81 195.5zM1133 254q0 -54 37 -93.5t94 -39.5q56 0 94.5 39.5t38.5 93.5v223q0 54 -38.5 93.5t-94.5 39.5 q-57 0 -94 -39.5t-37 -93.5v-223z" />
<glyph unicode="&#x26;" horiz-adv-x="1310" d="M57 395q0 70 19.5 128.5t57.5 103.5t79 77t96 64q-96 161 -96 309t89 247t241 99q144 0 230.5 -91t86.5 -236q0 -62 -18.5 -114.5t-45 -89.5t-71.5 -72t-83 -56.5t-93 -48.5q124 -154 319 -307q101 168 156 327l152 -78q-20 -73 -69 -178.5t-97 -179.5q128 -93 270 -172 l-80 -150q-161 97 -291 191q-170 -191 -409 -191q-202 0 -322.5 119t-120.5 299zM221 395q0 -112 79 -188t206 -76q140 0 266 143q-241 189 -375 363q-85 -49 -130.5 -104t-45.5 -138zM375 1073q0 -94 82 -231q46 23 75 38.5t63.5 40t53.5 47.5t32 56t13 70q0 41 -13.5 79 t-50 67.5t-91.5 29.5q-79 0 -121.5 -59.5t-42.5 -137.5z" />
<glyph unicode="'" horiz-adv-x="331" d="M82 881v520h178l-37 -520h-141z" />
<glyph unicode="(" horiz-adv-x="579" d="M66 655q0 233 86 441t241 368l123 -108q-137 -133 -213 -316t-76 -385q0 -203 76 -386t213 -314l-125 -113q-154 162 -239.5 371t-85.5 442z" />
<glyph unicode=")" horiz-adv-x="579" d="M66 -45q135 131 209.5 313.5t74.5 386.5q0 202 -74 385.5t-208 315.5l122 108q154 -160 240 -368t86 -441t-86.5 -442t-241.5 -371z" />
<glyph unicode="*" horiz-adv-x="688" d="M41 909l215 156l-215 156l55 84l199 -146v242h98v-242l199 146l55 -84l-219 -156l219 -156l-55 -80l-199 144v-246h-98v246l-199 -144z" />
<glyph unicode="+" horiz-adv-x="901" d="M41 539v161h328v328h163v-328h328v-161h-328v-328h-163v328h-328z" />
<glyph unicode="," horiz-adv-x="337" d="M82 0v186h174v-174l-59 -139h-76l33 127h-72z" />
<glyph unicode="-" horiz-adv-x="786" d="M82 426v158h620v-158h-620z" />
<glyph unicode="." horiz-adv-x="337" d="M82 0v186h174v-186h-174z" />
<glyph unicode="/" horiz-adv-x="616" d="M33 0l368 1401h183l-369 -1401h-182z" />
<glyph unicode="0" horiz-adv-x="989" d="M27 430v326q0 187 132 318.5t324 131.5q194 0 326.5 -131.5t132.5 -318.5v-326q0 -188 -133 -320.5t-326 -132.5q-192 0 -324 133t-132 320zM197 430q0 -119 84 -203t202 -84q119 0 203 84.5t84 202.5v326q0 118 -84 202t-203 84t-202.5 -84t-83.5 -202v-326z" />
<glyph unicode="1" horiz-adv-x="452" d="M45 1028v156h326v-1184h-174v1028h-152z" />
<glyph unicode="2" horiz-adv-x="878" d="M20 940q48 140 158 217.5t240 77.5q173 0 294.5 -120t121.5 -290q0 -104 -37.5 -180.5t-130.5 -155.5l-381 -325h549v-164h-801v162l526 459q61 53 85 99t24 105q0 99 -72.5 169.5t-177.5 70.5q-79 0 -146.5 -47t-95.5 -131z" />
<glyph unicode="3" horiz-adv-x="937" d="M25 231l149 93q33 -84 103.5 -134.5t160.5 -50.5q120 0 203.5 86t83.5 203t-83.5 201t-203.5 84q-90 0 -166 -51l-79 143l358 244h-449v163h727v-165l-262 -193q145 -40 237.5 -157t92.5 -269q0 -187 -134 -319t-325 -132q-136 0 -246.5 69t-166.5 185z" />
<glyph unicode="4" horiz-adv-x="933" d="M33 188v154l538 870h174v-870h152v-154h-152v-188h-174v188h-538zM227 342h344v567z" />
<glyph unicode="5" horiz-adv-x="962" d="M49 229l150 95q33 -84 103.5 -134.5t160.5 -50.5q120 0 203.5 86t83.5 203t-83.5 201t-203.5 84q-69 0 -138 -35.5t-110 -112.5l-139 78l67 569h670v-161h-514l-27 -222q77 45 191 45q192 0 325.5 -129.5t133.5 -316.5t-134 -319t-325 -132q-137 0 -247.5 68.5 t-166.5 183.5z" />
<glyph unicode="6" horiz-adv-x="999" d="M41 426q0 106 61 225l293 561h183l-185 -348q39 10 101 10q100 0 187.5 -35.5t147.5 -96t94.5 -142t34.5 -170.5q0 -189 -133 -321t-325 -132q-126 0 -231.5 59.5t-166.5 163t-61 226.5zM205 428q0 -121 86.5 -209t208.5 -88q123 0 209 88t86 209q0 122 -85.5 207.5 t-209.5 85.5q-123 0 -209 -85.5t-86 -207.5z" />
<glyph unicode="7" horiz-adv-x="792" d="M29 1059v153h731v-153l-455 -1059h-199l455 1059h-532z" />
<glyph unicode="8" horiz-adv-x="825" d="M41 352q0 93 43 173t117 132q-54 43 -84.5 107.5t-30.5 138.5q0 139 95.5 235.5t232.5 96.5q138 0 234.5 -96.5t96.5 -235.5q0 -74 -31.5 -138.5t-86.5 -109.5q73 -50 115 -130t42 -173q0 -156 -108 -265.5t-264 -109.5q-153 0 -262 110t-109 265zM205 352q0 -84 61 -143 t146 -59q88 0 148.5 58.5t60.5 143.5q0 84 -61 142.5t-148 58.5q-85 0 -146 -59t-61 -142zM252 903q0 -65 47.5 -111.5t114.5 -46.5q70 0 119 46.5t49 111.5q0 68 -49 115t-119 47q-68 0 -115 -47.5t-47 -114.5z" />
<glyph unicode="9" horiz-adv-x="999" d="M41 782q0 189 133.5 321t325.5 132t325 -130.5t133 -318.5q0 -106 -61 -225l-293 -561h-182l186 348q-41 -10 -102 -10q-134 0 -241 61t-165.5 162t-58.5 221zM203 784q0 -121 87 -206.5t210 -85.5t208 85t85 207q0 121 -85.5 209t-207.5 88t-209.5 -88t-87.5 -209z" />
<glyph unicode=":" horiz-adv-x="337" d="M82 166v186h174v-186h-174zM82 657v187h174v-187h-174z" />
<glyph unicode=";" horiz-adv-x="337" d="M82 168v186h174v-174l-59 -139h-76l33 127h-72zM82 657v187h174v-187h-174z" />
<glyph unicode="&#x3c;" horiz-adv-x="901" d="M41 512v180l809 320v-183l-606 -227l606 -225v-184z" />
<glyph unicode="=" horiz-adv-x="901" d="M41 348v162h819v-162h-819zM41 702v162h819v-162h-819z" />
<glyph unicode="&#x3e;" horiz-adv-x="901" d="M51 193v184l606 225l-606 227v183l809 -320v-180z" />
<glyph unicode="?" horiz-adv-x="972" d="M25 1075q37 150 158.5 244t283.5 94q193 0 326 -129t133 -317q0 -170 -108.5 -294t-276.5 -147v-204h-174v358q58 4 110 4q119 5 198 85.5t79 197.5q0 118 -83.5 200t-203.5 82q-104 0 -183 -66t-96 -167zM367 0v190h174v-190h-174z" />
<glyph unicode="@" horiz-adv-x="1740" d="M66 551q0 162 59.5 307.5t163.5 252.5t256.5 169.5t328.5 62.5q187 0 339.5 -61t253 -169t154.5 -254t54 -316q0 -130 -28.5 -223t-96 -149t-170.5 -56q-162 0 -219 147q-121 -147 -325 -147q-187 0 -316 127t-129 309q0 181 129 306.5t320 125.5q170 0 303 -127v119h133 v-586q0 -143 115 -143q80 0 125 75t45 226q0 115 -26.5 217.5t-82.5 189t-136 149.5t-193 98.5t-249 35.5q-153 0 -283.5 -54t-219 -147t-138 -218t-49.5 -265q0 -143 52 -271.5t140 -220.5t209 -146t255 -54q132 0 261.5 38.5t225.5 108.5l59 -94q-229 -160 -534 -160 q-164 0 -310.5 63t-250.5 170t-164.5 254t-60.5 310zM524 549q0 -122 91 -213.5t216 -91.5q123 0 217.5 92t94.5 213q0 123 -94.5 215t-217.5 92q-124 0 -215.5 -92.5t-91.5 -214.5z" />
<glyph unicode="A" horiz-adv-x="1189" d="M37 508q0 144 70.5 265t192.5 191t267 70q103 0 197 -41t164 -114v139h174v-1018h-174v133q-67 -71 -162.5 -112t-198.5 -41q-145 0 -267 71t-192.5 192.5t-70.5 264.5zM207 508q0 -150 105.5 -256.5t254.5 -106.5t255 107t106 256q0 148 -106 254t-255 106t-254.5 -106 t-105.5 -254z" />
<glyph unicode="B" horiz-adv-x="1189" d="M78 0v1401h174v-522q68 73 162.5 114t197.5 41q145 0 267.5 -70t193 -191t70.5 -265q0 -143 -70.5 -264.5t-193 -192.5t-267.5 -71q-103 0 -198 41t-162 112v-133h-174zM252 508q0 -150 105.5 -256.5t254.5 -106.5t255 107t106 256q0 148 -106 254t-255 106t-254.5 -106 t-105.5 -254z" />
<glyph unicode="C" horiz-adv-x="1042" d="M37 508q0 144 70.5 265t192.5 191t267 70q134 0 243 -55.5t183 -159.5l-147 -86q-109 135 -279 135q-149 0 -254.5 -106t-105.5 -254q0 -150 105.5 -256.5t254.5 -106.5q182 0 291 150l148 -86q-76 -109 -189 -169t-250 -60q-145 0 -267 71t-192.5 192.5t-70.5 264.5z " />
<glyph unicode="D" horiz-adv-x="1189" d="M37 508q0 144 70.5 265t192.5 191t267 70q103 0 197 -41t164 -114v522h174v-1401h-174v133q-67 -71 -162.5 -112t-198.5 -41q-145 0 -267 71t-192.5 192.5t-70.5 264.5zM207 508q0 -150 105.5 -256.5t254.5 -106.5t255 107t106 256q0 148 -106 254t-255 106t-254.5 -106 t-105.5 -254z" />
<glyph unicode="E" d="M37 508q0 144 70.5 265t192.5 191t267 70q151 0 274 -72.5t191 -194.5t68 -267q0 -6 -1 -25.5t-1 -25.5h-883q24 -135 123 -219.5t240 -84.5q209 0 321 177l152 -80q-75 -124 -196.5 -193t-276.5 -69q-230 0 -385.5 152t-155.5 376zM221 596h692q-31 123 -124 197.5 t-222 74.5q-125 0 -220.5 -77t-125.5 -195z" />
<glyph unicode="F" horiz-adv-x="634" d="M49 745v164h103v119q0 386 416 386q18 0 36 -1l-12 -170q-143 0 -203.5 -46.5t-60.5 -168.5v-119h219v-164h-219v-745h-176v745h-103z" />
<glyph unicode="G" horiz-adv-x="1189" d="M37 508q0 144 70.5 265t192.5 191t267 70q103 0 197 -41t164 -114v139h174v-856q0 -259 -144.5 -400t-390.5 -141q-273 0 -461 174l97 131q169 -141 364 -141q95 0 175.5 39t132.5 120.5t53 190.5q-66 -71 -163 -113t-198 -42q-145 0 -267 70t-192.5 191.5t-70.5 266.5z M207 508q0 -150 105.5 -256.5t254.5 -106.5t255 107t106 256q0 148 -106 254t-255 106t-254.5 -106t-105.5 -254z" />
<glyph unicode="H" horiz-adv-x="1036" d="M78 0v1401h174v-467q119 100 305 100q410 0 410 -493v-541h-174v469q0 107 -11 177t-40.5 122.5t-82.5 76t-135 23.5q-134 0 -203 -73.5t-69 -219.5v-575h-174z" />
<glyph unicode="I" horiz-adv-x="337" d="M78 0v1018h174v-1018h-174zM78 1176v176h174v-176h-174z" />
<glyph unicode="J" horiz-adv-x="321" d="M-113 -354l9 170q89 19 127 62t38 151v989h175v-989q0 -103 -26 -178t-74 -119t-110 -65t-139 -21zM61 1176v176h175v-176h-175z" />
<glyph unicode="K" horiz-adv-x="946" d="M78 0v1401h174v-780l391 397h215l-366 -377l426 -641h-209l-344 510l-113 -117v-393h-174z" />
<glyph unicode="L" horiz-adv-x="389" d="M61 0v1401h175v-1401h-175z" />
<glyph unicode="M" horiz-adv-x="1667" d="M78 0v1018h174v-78q117 94 295 94q101 0 181 -40t124 -113q129 153 362 153q377 0 377 -479v-555h-174v479q0 82 -5.5 139t-20.5 107.5t-42 80t-70.5 46t-104.5 16.5q-119 0 -184.5 -68t-65.5 -194v-606h-174v479q0 83 -5.5 139.5t-20 107t-41.5 80t-69.5 46t-103.5 16.5 q-125 0 -191.5 -71.5t-66.5 -206.5v-590h-174z" />
<glyph unicode="N" horiz-adv-x="1036" d="M78 0v1018h174v-84q119 100 305 100q410 0 410 -493v-541h-174v469q0 107 -11 177t-40.5 122.5t-82.5 76t-135 23.5q-134 0 -203 -73.5t-69 -219.5v-575h-174z" />
<glyph unicode="O" d="M37 508q0 144 70.5 265t192.5 191t267 70t268 -70t194 -191t71 -265q0 -143 -71 -264.5t-194 -192.5t-268 -71t-267 71t-192.5 192.5t-70.5 264.5zM207 508q0 -150 105.5 -256.5t254.5 -106.5t255 107t106 256q0 148 -106 254t-255 106t-254.5 -106t-105.5 -254z" />
<glyph unicode="P" horiz-adv-x="1189" d="M78 -354v1372h174v-139q68 73 162.5 114t197.5 41q145 0 267.5 -70t193 -191t70.5 -265q0 -143 -70.5 -264.5t-193 -192.5t-267.5 -71q-103 0 -198 41t-162 112v-487h-174zM252 508q0 -150 105.5 -256.5t254.5 -106.5t255 107t106 256q0 148 -106 254t-255 106 t-254.5 -106t-105.5 -254z" />
<glyph unicode="Q" horiz-adv-x="1189" d="M37 508q0 144 70.5 265t192.5 191t267 70q103 0 197 -41t164 -114v139h174v-1372h-174v487q-67 -71 -162.5 -112t-198.5 -41q-145 0 -267 71t-192.5 192.5t-70.5 264.5zM207 508q0 -150 105.5 -256.5t254.5 -106.5t255 107t106 256q0 148 -106 254t-255 106t-254.5 -106 t-105.5 -254z" />
<glyph unicode="R" horiz-adv-x="589" d="M78 0v1018h174v-103q56 62 125 89.5t168 29.5l-13 -190q-157 0 -218.5 -74t-61.5 -252v-518h-174z" />
<glyph unicode="S" horiz-adv-x="935" d="M41 322h184q4 -35 19 -66.5t43 -62t78 -48.5t116 -18q103 0 165.5 45t62.5 113t-59 98.5t-201 48.5q-57 7 -103.5 17t-101.5 32t-92.5 52.5t-63 80.5t-25.5 113q0 135 102 221t284 86q180 0 283.5 -83.5t121.5 -235.5h-180q-10 81 -59.5 126.5t-161.5 45.5 q-94 0 -148.5 -37.5t-54.5 -93.5q0 -62 66 -94.5t198 -53.5q96 -14 162.5 -34.5t120 -55t79 -88.5t25.5 -129q0 -105 -57 -179t-151.5 -108t-219.5 -34q-192 0 -303 91t-129 251z" />
<glyph unicode="T" horiz-adv-x="647" d="M25 856v162h122v287h177v-287h235v-162h-235v-481q0 -115 57 -162.5t211 -48.5l14 -170h-55q-88 0 -158 19t-127 61.5t-88 118t-31 180.5v483h-122z" />
<glyph unicode="U" horiz-adv-x="1036" d="M66 481v537h174v-467q0 -214 55.5 -306.5t210.5 -92.5q132 0 201 75.5t69 218.5v572h174v-1016h-174v84q-116 -98 -303 -98q-211 0 -309 126t-98 367z" />
<glyph unicode="V" horiz-adv-x="995" d="M25 1018h182l285 -805l284 805h178l-358 -1018h-213z" />
<glyph unicode="W" horiz-adv-x="1568" d="M25 1018h178l233 -772l252 772h184l232 -772l254 772h172l-330 -1018h-201l-225 741l-242 -741h-200z" />
<glyph unicode="X" horiz-adv-x="972" d="M16 0l383 543l-336 475h211l230 -324l231 324h209l-338 -475l385 -543h-209l-278 391l-279 -391h-209z" />
<glyph unicode="Y" horiz-adv-x="1003" d="M35 1018h184l279 -799l280 799h180l-376 -1061q-61 -176 -136 -256t-196 -80q-100 0 -176 33l37 162q58 -17 108 -17q72 0 119 50.5t47 134.5q0 46 -41 168z" />
<glyph unicode="Z" horiz-adv-x="937" d="M41 0v162l592 696h-567v160h798v-162l-592 -696h627v-160h-858z" />
<glyph unicode="[" horiz-adv-x="512" d="M82 -354v1755h379v-154h-205v-1448h205v-153h-379z" />
<glyph unicode="\" horiz-adv-x="616" d="M33 1401h182l369 -1401h-183z" />
<glyph unicode="]" horiz-adv-x="512" d="M53 -201h203v1448h-203v154h379v-1755h-379v153z" />
<glyph unicode="^" horiz-adv-x="829" d="M23 954l391 353l393 -353l-86 -133l-307 283l-305 -283z" />
<glyph unicode="_" horiz-adv-x="745" d="M0 0h743v-158h-743v158z" />
<glyph unicode="`" horiz-adv-x="815" d="M164 1130l41 168l411 -135l-34 -141z" />
<glyph unicode="a" horiz-adv-x="1179" d="M37 508q0 144 70.5 265t192.5 191t267 70q103 0 197 -41t164 -114v139h174v-1018h-174v133q-67 -71 -162.5 -112t-198.5 -41q-145 0 -267 71t-192.5 192.5t-70.5 264.5zM207 508q0 -150 105.5 -256.5t254.5 -106.5t255 107t106 256q0 148 -106 254t-255 106t-254.5 -106 t-105.5 -254z" />
<glyph unicode="b" horiz-adv-x="1179" d="M78 0v1401h174v-522q68 73 162.5 114t197.5 41q145 0 267.5 -70t193 -191t70.5 -265q0 -143 -70.5 -264.5t-193 -192.5t-267.5 -71q-103 0 -198 41t-162 112v-133h-174zM252 508q0 -150 105.5 -256.5t254.5 -106.5t255 107t106 256q0 148 -106 254t-255 106t-254.5 -106 t-105.5 -254z" />
<glyph unicode="c" horiz-adv-x="1030" d="M37 508q0 144 70.5 265t192.5 191t267 70q134 0 243 -55.5t183 -159.5l-147 -86q-109 135 -279 135q-149 0 -254.5 -106t-105.5 -254q0 -150 105.5 -256.5t254.5 -106.5q182 0 291 150l148 -86q-76 -109 -189 -169t-250 -60q-145 0 -267 71t-192.5 192.5t-70.5 264.5z " />
<glyph unicode="d" horiz-adv-x="1179" d="M37 508q0 144 70.5 265t192.5 191t267 70q103 0 197 -41t164 -114v522h174v-1401h-174v133q-67 -71 -162.5 -112t-198.5 -41q-145 0 -267 71t-192.5 192.5t-70.5 264.5zM207 508q0 -150 105.5 -256.5t254.5 -106.5t255 107t106 256q0 148 -106 254t-255 106t-254.5 -106 t-105.5 -254z" />
<glyph unicode="e" horiz-adv-x="1136" d="M37 508q0 144 70.5 265t192.5 191t267 70q151 0 274 -72.5t191 -194.5t68 -267q0 -6 -1 -25.5t-1 -25.5h-883q24 -135 123 -219.5t240 -84.5q209 0 321 177l152 -80q-75 -124 -196.5 -193t-276.5 -69q-230 0 -385.5 152t-155.5 376zM221 596h692q-31 123 -124 197.5 t-222 74.5q-125 0 -220.5 -77t-125.5 -195z" />
<glyph unicode="f" horiz-adv-x="624" d="M49 745v164h103v119q0 386 416 386q18 0 36 -1l-12 -170q-143 0 -203.5 -46.5t-60.5 -168.5v-119h219v-164h-219v-745h-176v745h-103z" />
<glyph unicode="g" horiz-adv-x="1179" d="M37 508q0 144 70.5 265t192.5 191t267 70q103 0 197 -41t164 -114v139h174v-856q0 -259 -144.5 -400t-390.5 -141q-273 0 -461 174l97 131q169 -141 364 -141q95 0 175.5 39t132.5 120.5t53 190.5q-66 -71 -163 -113t-198 -42q-145 0 -267 70t-192.5 191.5t-70.5 266.5z M207 508q0 -150 105.5 -256.5t254.5 -106.5t255 107t106 256q0 148 -106 254t-255 106t-254.5 -106t-105.5 -254z" />
<glyph unicode="h" horiz-adv-x="1032" d="M78 0v1401h174v-467q119 100 305 100q410 0 410 -493v-541h-174v469q0 107 -11 177t-40.5 122.5t-82.5 76t-135 23.5q-134 0 -203 -73.5t-69 -219.5v-575h-174z" />
<glyph unicode="i" horiz-adv-x="329" d="M78 0v1018h174v-1018h-174zM78 1176v176h174v-176h-174z" />
<glyph unicode="j" horiz-adv-x="313" d="M-113 -354l9 170q89 19 127 62t38 151v989h175v-989q0 -103 -26 -178t-74 -119t-110 -65t-139 -21zM61 1176v176h175v-176h-175z" />
<glyph unicode="k" horiz-adv-x="925" d="M78 0v1401h174v-780l391 397h215l-366 -377l426 -641h-209l-344 510l-113 -117v-393h-174z" />
<glyph unicode="l" horiz-adv-x="329" d="M78 0v1401h174v-1401h-174z" />
<glyph unicode="m" horiz-adv-x="1656" d="M78 0v1018h174v-78q117 94 295 94q101 0 181 -40t124 -113q129 153 362 153q377 0 377 -479v-555h-174v479q0 82 -5.5 139t-20.5 107.5t-42 80t-70.5 46t-104.5 16.5q-119 0 -184.5 -68t-65.5 -194v-606h-174v479q0 83 -5.5 139.5t-20 107t-41.5 80t-69.5 46t-103.5 16.5 q-125 0 -191.5 -71.5t-66.5 -206.5v-590h-174z" />
<glyph unicode="n" horiz-adv-x="1032" d="M78 0v1018h174v-84q119 100 305 100q410 0 410 -493v-541h-174v469q0 107 -11 177t-40.5 122.5t-82.5 76t-135 23.5q-134 0 -203 -73.5t-69 -219.5v-575h-174z" />
<glyph unicode="o" horiz-adv-x="1136" d="M37 508q0 144 70.5 265t192.5 191t267 70t268 -70t194 -191t71 -265q0 -143 -71 -264.5t-194 -192.5t-268 -71t-267 71t-192.5 192.5t-70.5 264.5zM207 508q0 -150 105.5 -256.5t254.5 -106.5t255 107t106 256q0 148 -106 254t-255 106t-254.5 -106t-105.5 -254z" />
<glyph unicode="p" horiz-adv-x="1179" d="M78 -354v1372h174v-139q68 73 162.5 114t197.5 41q145 0 267.5 -70t193 -191t70.5 -265q0 -143 -70.5 -264.5t-193 -192.5t-267.5 -71q-103 0 -198 41t-162 112v-487h-174zM252 508q0 -150 105.5 -256.5t254.5 -106.5t255 107t106 256q0 148 -106 254t-255 106 t-254.5 -106t-105.5 -254z" />
<glyph unicode="q" horiz-adv-x="1179" d="M37 508q0 144 70.5 265t192.5 191t267 70q103 0 197 -41t164 -114v139h174v-1372h-174v487q-67 -71 -162.5 -112t-198.5 -41q-145 0 -267 71t-192.5 192.5t-70.5 264.5zM207 508q0 -150 105.5 -256.5t254.5 -106.5t255 107t106 256q0 148 -106 254t-255 106t-254.5 -106 t-105.5 -254z" />
<glyph unicode="r" horiz-adv-x="581" d="M78 0v1018h174v-103q56 62 125 89.5t168 29.5l-13 -190q-157 0 -218.5 -74t-61.5 -252v-518h-174z" />
<glyph unicode="s" horiz-adv-x="929" d="M41 322h184q4 -35 19 -66.5t43 -62t78 -48.5t116 -18q103 0 165.5 45t62.5 113t-59 98.5t-201 48.5q-57 7 -103.5 17t-101.5 32t-92.5 52.5t-63 80.5t-25.5 113q0 135 102 221t284 86q180 0 283.5 -83.5t121.5 -235.5h-180q-10 81 -59.5 126.5t-161.5 45.5 q-94 0 -148.5 -37.5t-54.5 -93.5q0 -62 66 -94.5t198 -53.5q96 -14 162.5 -34.5t120 -55t79 -88.5t25.5 -129q0 -105 -57 -179t-151.5 -108t-219.5 -34q-192 0 -303 91t-129 251z" />
<glyph unicode="t" horiz-adv-x="638" d="M25 856v162h122v287h177v-287h235v-162h-235v-481q0 -115 57 -162.5t211 -48.5l14 -170h-55q-88 0 -158 19t-127 61.5t-88 118t-31 180.5v483h-122z" />
<glyph unicode="u" horiz-adv-x="1028" d="M66 481v537h174v-467q0 -214 55.5 -306.5t210.5 -92.5q132 0 201 75.5t69 218.5v572h174v-1016h-174v84q-116 -98 -303 -98q-211 0 -309 126t-98 367z" />
<glyph unicode="v" horiz-adv-x="978" d="M25 1018h182l285 -805l284 805h178l-358 -1018h-213z" />
<glyph unicode="w" horiz-adv-x="1552" d="M25 1018h178l233 -772l252 772h184l232 -772l254 772h172l-330 -1018h-201l-225 741l-242 -741h-200z" />
<glyph unicode="x" horiz-adv-x="1007" d="M16 0l383 543l-336 475h211l230 -324l231 324h209l-338 -475l385 -543h-209l-278 391l-279 -391h-209z" />
<glyph unicode="y" horiz-adv-x="983" d="M35 1018h184l279 -799l280 799h180l-376 -1061q-61 -176 -136 -256t-196 -80q-100 0 -176 33l37 162q58 -17 108 -17q72 0 119 50.5t47 134.5q0 46 -41 168z" />
<glyph unicode="z" horiz-adv-x="927" d="M41 0v162l592 696h-567v160h798v-162l-592 -696h627v-160h-858z" />
<glyph unicode="{" horiz-adv-x="704" d="M66 438v174q41 9 69.5 24.5t45 34t26 46t12 53.5t2.5 64v143q0 104 20.5 180.5t57.5 125.5t96 78t128 40.5t161 11.5l-18 -170q-86 0 -142 -18t-82.5 -54.5t-35.5 -76t-9 -99.5v-145q0 -119 -27.5 -188t-117.5 -138q90 -70 117.5 -137t27.5 -186v-146q0 -47 5 -80.5 t21.5 -67t45.5 -54t78.5 -33.5t118.5 -13l18 -169q-93 0 -162 11.5t-128 40.5t-95.5 77.5t-57 125t-20.5 181.5v143q0 38 -2.5 64t-12 53.5t-26 45.5t-45 33.5t-69.5 24.5z" />
<glyph unicode="|" horiz-adv-x="337" d="M82 -293v1694h174v-1694h-174z" />
<glyph unicode="}" horiz-adv-x="704" d="M20 -362l19 169q87 0 143 18t82.5 54.5t35.5 76t9 99.5v146q0 117 28.5 185t117.5 138q-89 70 -117.5 139t-28.5 187v145q0 59 -9 99t-36 76.5t-83 54.5t-142 18l-19 170q92 0 161 -11.5t128 -40.5t96 -78t57.5 -125.5t20.5 -180.5v-143q0 -48 5 -79t20.5 -61.5 t47.5 -50.5t83 -31v-174q-41 -9 -69.5 -24.5t-45.5 -34t-26 -45.5t-12 -53t-3 -64v-143q0 -105 -20.5 -181.5t-57 -125t-95.5 -77.5t-128 -40.5t-162 -11.5z" />
<glyph unicode="~" horiz-adv-x="788" d="M41 1169q94 97 223 97q50 0 137 -31.5t131 -32.5q85 0 154 66l64 -125q-39 -50 -98.5 -74.5t-121.5 -24.5q-54 0 -105 16.5t-91.5 33t-69.5 16.5q-42 0 -89 -21.5t-73 -50.5z" />
<glyph unicode="&#xa1;" horiz-adv-x="337" d="M82 0v1063h174v-1063h-174zM82 1227v174h174v-174h-174z" />
<glyph unicode="&#xa2;" horiz-adv-x="1093" d="M57 606q0 196 131 342t326 172v160h141v-160q107 -10 199.5 -61.5t157.5 -134.5l-146 -93q-77 99 -211 125v-704q138 21 228 145l147 -90q-65 -93 -163 -152.5t-212 -72.5v-152h-141v156q-195 26 -326 174t-131 346zM231 606q0 -129 80 -226t203 -122v690 q-122 -23 -202.5 -119t-80.5 -223z" />
<glyph unicode="&#xa3;" horiz-adv-x="1128" d="M88 559v127h105q-19 71 -19 139q0 86 29 160.5t84 130.5t139.5 88.5t189.5 32.5q122 0 220 -51t157 -144l-145 -84q-40 60 -102 92.5t-130 32.5q-125 0 -202.5 -77t-77.5 -181q0 -67 16 -139h381v-127h-336q43 -96 64.5 -175.5t27.5 -188.5q100 -64 207 -64 q55 0 123.5 33.5t104.5 89.5l135 -96q-146 -181 -334 -181q-71 0 -191.5 37t-189.5 37q-104 0 -211 -78l-14 181q70 51 182 63h23q-6 95 -26.5 172.5t-61.5 169.5h-148z" />
<glyph unicode="&#xa5;" horiz-adv-x="1093" d="M53 1212h176l318 -596l317 596h176l-376 -702h286v-109h-315v-92h315v-108h-315v-201h-174v201h-316v108h316v92h-316v109h285z" />
<glyph unicode="&#xa6;" horiz-adv-x="337" d="M82 -293v662h174v-662h-174zM82 739v662h174v-662h-174z" />
<glyph unicode="&#xa7;" horiz-adv-x="960" d="M61 295h199q10 -65 71.5 -112.5t164.5 -47.5q96 0 153.5 42t57.5 104q0 58 -58.5 87t-181.5 40q-37 4 -62 7.5t-68.5 13.5t-74 22t-67 34t-58.5 49t-37.5 68t-15.5 90q0 133 102 219q-102 73 -102 201q0 135 102 220t283 85q170 0 272 -80t123 -219h-188 q-11 62 -55 100.5t-146 38.5q-89 0 -141.5 -31.5t-52.5 -84.5q0 -28 17.5 -50t40.5 -34.5t63 -22.5t65.5 -13.5t67.5 -8.5q43 -5 73.5 -10t72.5 -15.5t71 -23.5t60.5 -35t50.5 -50t31.5 -68.5t12.5 -90.5q0 -138 -90 -219q90 -67 90 -203q0 -158 -114.5 -239t-303.5 -81 q-193 0 -303 83.5t-125 234.5zM281 719q0 -31 18.5 -54t53 -36.5t64.5 -20t72 -12.5l105 -12q102 24 102 110q0 59 -52 91t-169 38q-27 2 -86 2q-52 -12 -80 -39.5t-28 -66.5z" />
<glyph unicode="&#xa8;" horiz-adv-x="768" d="M147 1073v170h170v-170h-170zM451 1073v170h170v-170h-170z" />
<glyph unicode="&#xa9;" horiz-adv-x="1179" d="M49 872q0 146 72.5 268.5t197 192.5t271.5 70q110 0 210 -41.5t172.5 -112.5t115 -169.5t42.5 -207.5q0 -144 -72 -266.5t-196.5 -194t-271.5 -71.5t-271.5 71.5t-197 194t-72.5 266.5zM135 872q0 -119 61 -223t166 -165.5t228 -61.5q186 0 320 134t134 316 q0 119 -61 223t-166 166t-227 62q-186 0 -320.5 -134.5t-134.5 -316.5zM313 872q0 120 84.5 202.5t206.5 82.5q150 0 232 -117l-95 -63q-52 65 -137 65q-74 0 -121 -49t-47 -121t47 -121t121 -49q81 0 135 64l95 -61q-83 -119 -230 -119q-121 0 -206 83.5t-85 202.5z" />
<glyph unicode="&#xaa;" horiz-adv-x="722" d="M82 1139q0 115 81 194.5t197 79.5q93 0 154 -47v41h127v-535h-127v35q-60 -43 -154 -43q-115 0 -196.5 80.5t-81.5 194.5zM207 1139q0 -61 45 -107.5t108 -46.5t108.5 46.5t45.5 107.5t-45 107t-109 46q-63 0 -108 -46t-45 -107z" />
<glyph unicode="&#xab;" horiz-adv-x="1058" d="M61 522l342 525h162l-342 -525l342 -522h-162zM453 522l342 525h161l-342 -525l342 -522h-161z" />
<glyph unicode="&#xad;" horiz-adv-x="786" d="M82 426v158h620v-158h-620z" />
<glyph unicode="&#xae;" horiz-adv-x="1179" d="M49 872q0 146 72.5 268.5t197 192.5t271.5 70q110 0 210 -41.5t172.5 -112.5t115 -169.5t42.5 -207.5q0 -144 -72 -266.5t-196.5 -194t-271.5 -71.5t-271.5 71.5t-197 194t-72.5 266.5zM135 872q0 -119 61 -223t166 -165.5t228 -61.5q186 0 320 134t134 316 q0 119 -61 223t-166 166t-227 62q-186 0 -320.5 -134.5t-134.5 -316.5zM455 573v555h129v-73q68 77 188 80l-4 -142q-105 0 -144.5 -39.5t-39.5 -126.5v-254h-129z" />
<glyph unicode="&#xaf;" horiz-adv-x="851" d="M147 1087v156h558v-156h-558z" />
<glyph unicode="&#xb0;" horiz-adv-x="923" d="M164 842v96q0 124 86.5 211.5t210.5 87.5t211.5 -88t87.5 -211v-96q0 -123 -87.5 -211t-211.5 -88t-210.5 87.5t-86.5 211.5zM303 842q0 -68 46 -115t112 -47t113 47.5t47 114.5v96q0 67 -47 114.5t-113 47.5t-112 -47t-46 -115v-96z" />
<glyph unicode="&#xb1;" horiz-adv-x="868" d="M25 66v161h819v-161h-819zM25 690v162h327v328h164v-328h328v-162h-328v-328h-164v328h-327z" />
<glyph unicode="&#xb4;" horiz-adv-x="815" d="M197 1163l411 135l41 -168l-418 -108z" />
<glyph unicode="&#xb6;" horiz-adv-x="991" d="M94 993q0 169 118.5 288.5t287.5 119.5h110v-1401h-110v590q-169 0 -287.5 118t-118.5 285zM766 0v1401h111v-1401h-111z" />
<glyph unicode="&#xb7;" horiz-adv-x="337" d="M82 414v184h174v-184h-174z" />
<glyph unicode="&#xb8;" horiz-adv-x="851" d="M272 -231q0 67 47 114t113 47h19v80h96v-176h-115q-28 0 -46.5 -18.5t-18.5 -46.5t18.5 -47t46.5 -19q20 0 38 12.5t24 30.5h98q-7 -58 -52.5 -96.5t-107.5 -38.5q-66 0 -113 46t-47 112z" />
<glyph unicode="&#xba;" horiz-adv-x="722" d="M82 1139q0 115 81 194.5t197 79.5q117 0 199 -79.5t82 -194.5q0 -114 -82 -194.5t-199 -80.5q-115 0 -196.5 80.5t-81.5 194.5zM207 1139q0 -61 45 -108.5t108 -47.5t108.5 47.5t45.5 108.5q0 60 -45.5 106.5t-108.5 46.5t-108 -46.5t-45 -106.5z" />
<glyph unicode="&#xbb;" horiz-adv-x="1058" d="M37 0l342 522l-342 525h162l342 -525l-342 -522h-162zM428 0l342 522l-342 525h162l342 -525l-342 -522h-162z" />
<glyph unicode="&#xbf;" horiz-adv-x="972" d="M45 442q0 168 109.5 292.5t277.5 150.5v209h174v-367q-108 0 -112 -4q-117 -5 -197 -85t-80 -196q0 -120 83.5 -201t203.5 -81q104 0 182.5 65.5t97.5 165.5l162 -57q-34 -148 -156.5 -243t-285.5 -95q-192 0 -325.5 129.5t-133.5 316.5zM432 1223v192h174v-192h-174z " />
<glyph unicode="&#xc0;" horiz-adv-x="1189" d="M37 508q0 144 70.5 265t192.5 191t267 70q103 0 197 -41t164 -114v139h174v-1018h-174v133q-67 -71 -162.5 -112t-198.5 -41q-145 0 -267 71t-192.5 192.5t-70.5 264.5zM207 508q0 -150 105.5 -256.5t254.5 -106.5t255 107t106 256q0 148 -106 254t-255 106t-254.5 -106 t-105.5 -254zM326 1227l41 168l411 -135l-35 -142z" />
<glyph unicode="&#xc1;" horiz-adv-x="1189" d="M37 508q0 144 70.5 265t192.5 191t267 70q103 0 197 -41t164 -114v139h174v-1018h-174v133q-67 -71 -162.5 -112t-198.5 -41q-145 0 -267 71t-192.5 192.5t-70.5 264.5zM207 508q0 -150 105.5 -256.5t254.5 -106.5t255 107t106 256q0 148 -106 254t-255 106t-254.5 -106 t-105.5 -254zM377 1260l411 135l41 -168l-417 -109z" />
<glyph unicode="&#xc2;" horiz-adv-x="1189" d="M37 508q0 144 70.5 265t192.5 191t267 70q103 0 197 -41t164 -114v139h174v-1018h-174v133q-67 -71 -162.5 -112t-198.5 -41q-145 0 -267 71t-192.5 192.5t-70.5 264.5zM207 508q0 -150 105.5 -256.5t254.5 -106.5t255 107t106 256q0 148 -106 254t-255 106t-254.5 -106 t-105.5 -254zM256 1227l309 221l309 -221l-53 -105l-256 140l-256 -140z" />
<glyph unicode="&#xc3;" horiz-adv-x="1189" d="M37 508q0 144 70.5 265t192.5 191t267 70q103 0 197 -41t164 -114v139h174v-1018h-174v133q-67 -71 -162.5 -112t-198.5 -41q-145 0 -267 71t-192.5 192.5t-70.5 264.5zM207 508q0 -150 105.5 -256.5t254.5 -106.5t255 107t106 256q0 148 -106 254t-255 106t-254.5 -106 t-105.5 -254zM264 1245q89 103 205 103q45 0 119 -24t114 -24q26 0 55.5 12.5t49.5 35.5l65 -78q-52 -61 -96.5 -86t-103.5 -25q-54 0 -125 24.5t-107 24.5q-28 0 -64.5 -16t-56.5 -35z" />
<glyph unicode="&#xc4;" horiz-adv-x="1189" d="M37 508q0 144 70.5 265t192.5 191t267 70q103 0 197 -41t164 -114v139h174v-1018h-174v133q-67 -71 -162.5 -112t-198.5 -41q-145 0 -267 71t-192.5 192.5t-70.5 264.5zM207 508q0 -150 105.5 -256.5t254.5 -106.5t255 107t106 256q0 148 -106 254t-255 106t-254.5 -106 t-105.5 -254zM287 1169v170h170v-170h-170zM590 1169v170h170v-170h-170z" />
<glyph unicode="&#xc5;" horiz-adv-x="1189" d="M37 508q0 144 70.5 265t192.5 191t267 70q103 0 197 -41t164 -114v139h174v-1018h-174v133q-67 -71 -162.5 -112t-198.5 -41q-145 0 -267 71t-192.5 192.5t-70.5 264.5zM207 508q0 -150 105.5 -256.5t254.5 -106.5t255 107t106 256q0 148 -106 254t-255 106t-254.5 -106 t-105.5 -254zM406 1272q0 73 52 124.5t126 51.5t126 -51.5t52 -124.5q0 -74 -52 -126t-126 -52t-126 52t-52 126zM471 1272q0 -47 33.5 -81t79.5 -34q47 0 80.5 34t33.5 81q0 49 -33.5 83t-80.5 34q-46 0 -79.5 -34t-33.5 -83z" />
<glyph unicode="&#xc6;" horiz-adv-x="2037" d="M41 502q0 144 70.5 264.5t193 190t268.5 69.5q206 0 361 -139v127h174v-125q150 137 356 137q148 0 271 -70t193.5 -190t70.5 -264q0 -5 -1 -20t-1 -19h-889q15 -137 117.5 -228.5t244.5 -91.5q113 0 202.5 61t133.5 163l156 -76q-66 -142 -197 -228t-295 -86 q-210 0 -362 142v-119h-174v121q-74 -68 -167 -106t-194 -38q-146 0 -268.5 71t-193 191.5t-70.5 262.5zM213 502q0 -148 105.5 -253.5t254.5 -105.5q148 0 254.5 103.5t106.5 255.5q0 150 -105.5 254t-255.5 104t-255 -104t-105 -254zM1120 610h688q-36 112 -129.5 181 t-214.5 69t-214.5 -69t-129.5 -181z" />
<glyph unicode="&#xc7;" horiz-adv-x="1042" d="M41 502q0 144 70.5 264.5t193 190t268.5 69.5q129 0 239 -54t185 -151l-145 -92q-50 62 -122.5 96.5t-156.5 34.5q-150 0 -255 -104t-105 -254q0 -148 105.5 -253.5t254.5 -105.5q90 0 165 40.5t128 111.5l146 -90q-67 -94 -165.5 -152.5t-213.5 -70.5v-148h-117 q-26 0 -44.5 -18.5t-18.5 -46.5t18.5 -47t44.5 -19q22 0 39 13t20 30h99q-7 -58 -52.5 -96.5t-105.5 -38.5q-67 0 -113.5 46t-46.5 112q0 68 46.5 114.5t113.5 46.5h21v52q-137 9 -251 80.5t-179.5 188t-65.5 251.5z" />
<glyph unicode="&#xc8;" d="M37 508q0 144 70.5 265t192.5 191t267 70q151 0 274 -72.5t191 -194.5t68 -267q0 -6 -1 -25.5t-1 -25.5h-883q24 -135 123 -219.5t240 -84.5q209 0 321 177l152 -80q-75 -124 -196.5 -193t-276.5 -69q-230 0 -385.5 152t-155.5 376zM221 596h692q-31 123 -124 197.5 t-222 74.5q-125 0 -220.5 -77t-125.5 -195zM334 1227l41 168l411 -135l-34 -142z" />
<glyph unicode="&#xc9;" d="M37 508q0 144 70.5 265t192.5 191t267 70q151 0 274 -72.5t191 -194.5t68 -267q0 -6 -1 -25.5t-1 -25.5h-883q24 -135 123 -219.5t240 -84.5q209 0 321 177l152 -80q-75 -124 -196.5 -193t-276.5 -69q-230 0 -385.5 152t-155.5 376zM221 596h692q-31 123 -124 197.5 t-222 74.5q-125 0 -220.5 -77t-125.5 -195zM383 1260l412 135l41 -168l-418 -109z" />
<glyph unicode="&#xca;" d="M37 508q0 144 70.5 265t192.5 191t267 70q151 0 274 -72.5t191 -194.5t68 -267q0 -6 -1 -25.5t-1 -25.5h-883q24 -135 123 -219.5t240 -84.5q209 0 321 177l152 -80q-75 -124 -196.5 -193t-276.5 -69q-230 0 -385.5 152t-155.5 376zM221 596h692q-31 123 -124 197.5 t-222 74.5q-125 0 -220.5 -77t-125.5 -195zM264 1227l309 221l310 -221l-54 -105l-256 140l-256 -140z" />
<glyph unicode="&#xcb;" d="M37 508q0 144 70.5 265t192.5 191t267 70q151 0 274 -72.5t191 -194.5t68 -267q0 -6 -1 -25.5t-1 -25.5h-883q24 -135 123 -219.5t240 -84.5q209 0 321 177l152 -80q-75 -124 -196.5 -193t-276.5 -69q-230 0 -385.5 152t-155.5 376zM221 596h692q-31 123 -124 197.5 t-222 74.5q-125 0 -220.5 -77t-125.5 -195zM295 1169v170h170v-170h-170zM598 1169v170h170v-170h-170z" />
<glyph unicode="&#xcc;" horiz-adv-x="389" d="M-45 1227l41 168l412 -135l-35 -142zM66 0v1047h174v-1047h-174z" />
<glyph unicode="&#xcd;" horiz-adv-x="389" d="M4 1260l412 135l41 -168l-418 -109zM66 0v1047h174v-1047h-174z" />
<glyph unicode="&#xce;" horiz-adv-x="389" d="M-115 1227l310 221l309 -221l-53 -105l-256 140l-256 -140zM66 0v1047h174v-1047h-174z" />
<glyph unicode="&#xcf;" horiz-adv-x="389" d="M-84 1169v170h170v-170h-170zM66 0v1047h174v-1047h-174zM219 1169v170h170v-170h-170z" />
<glyph unicode="&#xd0;" horiz-adv-x="1144" d="M41 502q0 144 71 264.5t193.5 190t267.5 69.5q67 0 142 -20l-70 131l-194 -29v129l133 16l-78 148h194l66 -121l195 29v-129l-136 -19l230 -428q49 -95 49 -223q0 -146 -70.5 -268.5t-193 -193.5t-267.5 -71q-146 0 -268.5 71t-193 191.5t-70.5 262.5zM213 502 q0 -148 106 -253.5t254 -105.5q147 0 254 106.5t107 248.5q0 154 -105 258t-256 104t-255.5 -103.5t-104.5 -254.5z" />
<glyph unicode="&#xd1;" horiz-adv-x="1036" d="M78 0v1018h174v-84q119 100 305 100q410 0 410 -493v-541h-174v469q0 107 -11 177t-40.5 122.5t-82.5 76t-135 23.5q-134 0 -203 -73.5t-69 -219.5v-575h-174zM182 1245q89 103 205 103q45 0 119.5 -24t114.5 -24q25 0 54.5 12.5t49.5 35.5l66 -78q-52 -61 -97 -86 t-104 -25q-54 0 -125 24.5t-107 24.5q-28 0 -64 -16t-56 -35z" />
<glyph unicode="&#xd2;" d="M37 508q0 144 70.5 265t192.5 191t267 70t268 -70t194 -191t71 -265q0 -143 -71 -264.5t-194 -192.5t-268 -71t-267 71t-192.5 192.5t-70.5 264.5zM207 508q0 -150 105.5 -256.5t254.5 -106.5t255 107t106 256q0 148 -106 254t-255 106t-254.5 -106t-105.5 -254z M334 1227l41 168l411 -135l-34 -142z" />
<glyph unicode="&#xd3;" d="M37 508q0 144 70.5 265t192.5 191t267 70t268 -70t194 -191t71 -265q0 -143 -71 -264.5t-194 -192.5t-268 -71t-267 71t-192.5 192.5t-70.5 264.5zM207 508q0 -150 105.5 -256.5t254.5 -106.5t255 107t106 256q0 148 -106 254t-255 106t-254.5 -106t-105.5 -254z M383 1260l412 135l41 -168l-418 -109z" />
<glyph unicode="&#xd4;" d="M37 508q0 144 70.5 265t192.5 191t267 70t268 -70t194 -191t71 -265q0 -143 -71 -264.5t-194 -192.5t-268 -71t-267 71t-192.5 192.5t-70.5 264.5zM207 508q0 -150 105.5 -256.5t254.5 -106.5t255 107t106 256q0 148 -106 254t-255 106t-254.5 -106t-105.5 -254z M264 1227l309 221l310 -221l-54 -105l-256 140l-256 -140z" />
<glyph unicode="&#xd5;" d="M37 508q0 144 70.5 265t192.5 191t267 70t268 -70t194 -191t71 -265q0 -143 -71 -264.5t-194 -192.5t-268 -71t-267 71t-192.5 192.5t-70.5 264.5zM207 508q0 -150 105.5 -256.5t254.5 -106.5t255 107t106 256q0 148 -106 254t-255 106t-254.5 -106t-105.5 -254z M270 1245q89 103 205 103q45 0 119.5 -24t114.5 -24q25 0 54.5 12.5t49.5 35.5l66 -78q-52 -61 -97 -86t-104 -25q-54 0 -125 24.5t-107 24.5q-28 0 -64 -16t-56 -35z" />
<glyph unicode="&#xd6;" d="M37 508q0 144 70.5 265t192.5 191t267 70t268 -70t194 -191t71 -265q0 -143 -71 -264.5t-194 -192.5t-268 -71t-267 71t-192.5 192.5t-70.5 264.5zM207 508q0 -150 105.5 -256.5t254.5 -106.5t255 107t106 256q0 148 -106 254t-255 106t-254.5 -106t-105.5 -254z M295 1169v170h170v-170h-170zM598 1169v170h170v-170h-170z" />
<glyph unicode="&#xd7;" horiz-adv-x="901" d="M80 330l256 278l-256 279l119 114l252 -272l256 272l116 -114l-258 -279l258 -278l-114 -117l-258 272l-254 -272z" />
<glyph unicode="&#xd8;" d="M41 502q0 144 70.5 264.5t193 190t268.5 69.5q145 0 269 -70l47 58h178l-115 -144q73 -71 113.5 -166.5t40.5 -201.5t-42 -203t-113 -167.5t-170 -112.5t-208 -42q-153 0 -278 80l-47 -57h-178l114 143q-68 69 -105.5 163t-37.5 196zM213 502q0 -132 82 -223l440 544 q-79 37 -162 37q-150 0 -255 -104t-105 -254zM399 190q80 -47 174 -47q149 0 255 105.5t106 253.5q0 134 -88 235z" />
<glyph unicode="&#xd9;" horiz-adv-x="1036" d="M66 481v537h174v-467q0 -214 55.5 -306.5t210.5 -92.5q132 0 201 75.5t69 218.5v572h174v-1016h-174v84q-116 -98 -303 -98q-211 0 -309 126t-98 367zM272 1227l41 168l412 -135l-35 -142z" />
<glyph unicode="&#xda;" horiz-adv-x="1036" d="M66 481v537h174v-467q0 -214 55.5 -306.5t210.5 -92.5q132 0 201 75.5t69 218.5v572h174v-1016h-174v84q-116 -98 -303 -98q-211 0 -309 126t-98 367zM324 1260l411 135l41 -168l-418 -109z" />
<glyph unicode="&#xdb;" horiz-adv-x="1036" d="M66 481v537h174v-467q0 -214 55.5 -306.5t210.5 -92.5q132 0 201 75.5t69 218.5v572h174v-1016h-174v84q-116 -98 -303 -98q-211 0 -309 126t-98 367zM203 1227l309 221l309 -221l-53 -105l-256 140l-256 -140z" />
<glyph unicode="&#xdc;" horiz-adv-x="1036" d="M66 481v537h174v-467q0 -214 55.5 -306.5t210.5 -92.5q132 0 201 75.5t69 218.5v572h174v-1016h-174v84q-116 -98 -303 -98q-211 0 -309 126t-98 367zM233 1169v170h170v-170h-170zM537 1169v170h170v-170h-170z" />
<glyph unicode="&#xdd;" horiz-adv-x="1003" d="M35 1018h184l279 -799l280 799h180l-376 -1061q-61 -176 -136 -256t-196 -80q-100 0 -176 33l37 162q58 -17 108 -17q72 0 119 50.5t47 134.5q0 46 -41 168zM311 1260l412 135l41 -168l-418 -109z" />
<glyph unicode="&#xde;" horiz-adv-x="1198" d="M82 -354v1755h174v-514q72 66 165.5 102.5t194.5 36.5q145 0 267.5 -69.5t194 -190t71.5 -264.5q0 -141 -71 -262t-194 -192t-268 -71q-101 0 -195.5 38.5t-164.5 105.5v-475h-174zM256 502q0 -148 105.5 -253.5t254.5 -105.5t254 105.5t105 253.5q0 150 -104.5 254 t-254.5 104t-255 -104t-105 -254z" />
<glyph unicode="&#xdf;" horiz-adv-x="972" d="M82 0v1020q0 159 114 270t277 111t277 -111t114 -270q0 -141 -110 -248q82 -62 130 -148.5t48 -183.5q0 -194 -128.5 -317t-330.5 -123h-65v154h65q117 0 206 86t89 200q0 98 -70.5 169t-173.5 71h-116v156h120q72 0 122 54.5t50 129.5q0 97 -66.5 162t-160.5 65 q-93 0 -161 -65.5t-68 -161.5v-1020h-162z" />
<glyph unicode="&#xe0;" horiz-adv-x="1189" d="M37 508q0 144 70.5 265t192.5 191t267 70q103 0 197 -41t164 -114v139h174v-1018h-174v133q-67 -71 -162.5 -112t-198.5 -41q-145 0 -267 71t-192.5 192.5t-70.5 264.5zM207 508q0 -150 105.5 -256.5t254.5 -106.5t255 107t106 256q0 148 -106 254t-255 106t-254.5 -106 t-105.5 -254zM326 1227l41 168l411 -135l-35 -142z" />
<glyph unicode="&#xe1;" horiz-adv-x="1189" d="M37 508q0 144 70.5 265t192.5 191t267 70q103 0 197 -41t164 -114v139h174v-1018h-174v133q-67 -71 -162.5 -112t-198.5 -41q-145 0 -267 71t-192.5 192.5t-70.5 264.5zM207 508q0 -150 105.5 -256.5t254.5 -106.5t255 107t106 256q0 148 -106 254t-255 106t-254.5 -106 t-105.5 -254zM377 1260l411 135l41 -168l-417 -109z" />
<glyph unicode="&#xe2;" horiz-adv-x="1189" d="M37 508q0 144 70.5 265t192.5 191t267 70q103 0 197 -41t164 -114v139h174v-1018h-174v133q-67 -71 -162.5 -112t-198.5 -41q-145 0 -267 71t-192.5 192.5t-70.5 264.5zM207 508q0 -150 105.5 -256.5t254.5 -106.5t255 107t106 256q0 148 -106 254t-255 106t-254.5 -106 t-105.5 -254zM256 1227l309 221l309 -221l-53 -105l-256 140l-256 -140z" />
<glyph unicode="&#xe3;" horiz-adv-x="1189" d="M37 508q0 144 70.5 265t192.5 191t267 70q103 0 197 -41t164 -114v139h174v-1018h-174v133q-67 -71 -162.5 -112t-198.5 -41q-145 0 -267 71t-192.5 192.5t-70.5 264.5zM207 508q0 -150 105.5 -256.5t254.5 -106.5t255 107t106 256q0 148 -106 254t-255 106t-254.5 -106 t-105.5 -254zM264 1245q89 103 205 103q45 0 119 -24t114 -24q26 0 55.5 12.5t49.5 35.5l65 -78q-52 -61 -96.5 -86t-103.5 -25q-54 0 -125 24.5t-107 24.5q-28 0 -64.5 -16t-56.5 -35z" />
<glyph unicode="&#xe4;" horiz-adv-x="1189" d="M37 508q0 144 70.5 265t192.5 191t267 70q103 0 197 -41t164 -114v139h174v-1018h-174v133q-67 -71 -162.5 -112t-198.5 -41q-145 0 -267 71t-192.5 192.5t-70.5 264.5zM207 508q0 -150 105.5 -256.5t254.5 -106.5t255 107t106 256q0 148 -106 254t-255 106t-254.5 -106 t-105.5 -254zM287 1169v170h170v-170h-170zM590 1169v170h170v-170h-170z" />
<glyph unicode="&#xe5;" horiz-adv-x="1189" d="M37 508q0 144 70.5 265t192.5 191t267 70q103 0 197 -41t164 -114v139h174v-1018h-174v133q-67 -71 -162.5 -112t-198.5 -41q-145 0 -267 71t-192.5 192.5t-70.5 264.5zM207 508q0 -150 105.5 -256.5t254.5 -106.5t255 107t106 256q0 148 -106 254t-255 106t-254.5 -106 t-105.5 -254zM406 1272q0 73 52 124.5t126 51.5t126 -51.5t52 -124.5q0 -74 -52 -126t-126 -52t-126 52t-52 126zM471 1272q0 -47 33.5 -81t79.5 -34q47 0 80.5 34t33.5 81q0 49 -33.5 83t-80.5 34q-46 0 -79.5 -34t-33.5 -83z" />
<glyph unicode="&#xe6;" horiz-adv-x="2037" d="M41 502q0 144 70.5 264.5t193 190t268.5 69.5q206 0 361 -139v127h174v-125q150 137 356 137q148 0 271 -70t193.5 -190t70.5 -264q0 -5 -1 -20t-1 -19h-889q15 -137 117.5 -228.5t244.5 -91.5q113 0 202.5 61t133.5 163l156 -76q-66 -142 -197 -228t-295 -86 q-210 0 -362 142v-119h-174v121q-74 -68 -167 -106t-194 -38q-146 0 -268.5 71t-193 191.5t-70.5 262.5zM213 502q0 -148 105.5 -253.5t254.5 -105.5q148 0 254.5 103.5t106.5 255.5q0 150 -105.5 254t-255.5 104t-255 -104t-105 -254zM1120 610h688q-36 112 -129.5 181 t-214.5 69t-214.5 -69t-129.5 -181z" />
<glyph unicode="&#xe7;" horiz-adv-x="1042" d="M41 502q0 144 70.5 264.5t193 190t268.5 69.5q129 0 239 -54t185 -151l-145 -92q-50 62 -122.5 96.5t-156.5 34.5q-150 0 -255 -104t-105 -254q0 -148 105.5 -253.5t254.5 -105.5q90 0 165 40.5t128 111.5l146 -90q-67 -94 -165.5 -152.5t-213.5 -70.5v-148h-117 q-26 0 -44.5 -18.5t-18.5 -46.5t18.5 -47t44.5 -19q22 0 39 13t20 30h99q-7 -58 -52.5 -96.5t-105.5 -38.5q-67 0 -113.5 46t-46.5 112q0 68 46.5 114.5t113.5 46.5h21v52q-137 9 -251 80.5t-179.5 188t-65.5 251.5z" />
<glyph unicode="&#xe8;" d="M37 508q0 144 70.5 265t192.5 191t267 70q151 0 274 -72.5t191 -194.5t68 -267q0 -6 -1 -25.5t-1 -25.5h-883q24 -135 123 -219.5t240 -84.5q209 0 321 177l152 -80q-75 -124 -196.5 -193t-276.5 -69q-230 0 -385.5 152t-155.5 376zM221 596h692q-31 123 -124 197.5 t-222 74.5q-125 0 -220.5 -77t-125.5 -195zM334 1227l41 168l411 -135l-34 -142z" />
<glyph unicode="&#xe9;" d="M37 508q0 144 70.5 265t192.5 191t267 70q151 0 274 -72.5t191 -194.5t68 -267q0 -6 -1 -25.5t-1 -25.5h-883q24 -135 123 -219.5t240 -84.5q209 0 321 177l152 -80q-75 -124 -196.5 -193t-276.5 -69q-230 0 -385.5 152t-155.5 376zM221 596h692q-31 123 -124 197.5 t-222 74.5q-125 0 -220.5 -77t-125.5 -195zM383 1260l412 135l41 -168l-418 -109z" />
<glyph unicode="&#xea;" d="M37 508q0 144 70.5 265t192.5 191t267 70q151 0 274 -72.5t191 -194.5t68 -267q0 -6 -1 -25.5t-1 -25.5h-883q24 -135 123 -219.5t240 -84.5q209 0 321 177l152 -80q-75 -124 -196.5 -193t-276.5 -69q-230 0 -385.5 152t-155.5 376zM221 596h692q-31 123 -124 197.5 t-222 74.5q-125 0 -220.5 -77t-125.5 -195zM264 1227l309 221l310 -221l-54 -105l-256 140l-256 -140z" />
<glyph unicode="&#xeb;" d="M37 508q0 144 70.5 265t192.5 191t267 70q151 0 274 -72.5t191 -194.5t68 -267q0 -6 -1 -25.5t-1 -25.5h-883q24 -135 123 -219.5t240 -84.5q209 0 321 177l152 -80q-75 -124 -196.5 -193t-276.5 -69q-230 0 -385.5 152t-155.5 376zM221 596h692q-31 123 -124 197.5 t-222 74.5q-125 0 -220.5 -77t-125.5 -195zM295 1169v170h170v-170h-170zM598 1169v170h170v-170h-170z" />
<glyph unicode="&#xec;" horiz-adv-x="389" d="M-45 1227l41 168l412 -135l-35 -142zM66 0v1047h174v-1047h-174z" />
<glyph unicode="&#xed;" horiz-adv-x="389" d="M4 1260l412 135l41 -168l-418 -109zM66 0v1047h174v-1047h-174z" />
<glyph unicode="&#xee;" horiz-adv-x="389" d="M-115 1227l310 221l309 -221l-53 -105l-256 140l-256 -140zM66 0v1047h174v-1047h-174z" />
<glyph unicode="&#xef;" horiz-adv-x="389" d="M-84 1169v170h170v-170h-170zM66 0v1047h174v-1047h-174zM219 1169v170h170v-170h-170z" />
<glyph unicode="&#xf0;" horiz-adv-x="1144" d="M41 502q0 144 71 264.5t193.5 190t267.5 69.5q67 0 142 -20l-70 131l-194 -29v129l133 16l-78 148h194l66 -121l195 29v-129l-136 -19l230 -428q49 -95 49 -223q0 -146 -70.5 -268.5t-193 -193.5t-267.5 -71q-146 0 -268.5 71t-193 191.5t-70.5 262.5zM213 502 q0 -148 106 -253.5t254 -105.5q147 0 254 106.5t107 248.5q0 154 -105 258t-256 104t-255.5 -103.5t-104.5 -254.5z" />
<glyph unicode="&#xf1;" horiz-adv-x="1036" d="M78 0v1018h174v-84q119 100 305 100q410 0 410 -493v-541h-174v469q0 107 -11 177t-40.5 122.5t-82.5 76t-135 23.5q-134 0 -203 -73.5t-69 -219.5v-575h-174zM182 1245q89 103 205 103q45 0 119.5 -24t114.5 -24q25 0 54.5 12.5t49.5 35.5l66 -78q-52 -61 -97 -86 t-104 -25q-54 0 -125 24.5t-107 24.5q-28 0 -64 -16t-56 -35z" />
<glyph unicode="&#xf2;" d="M37 508q0 144 70.5 265t192.5 191t267 70t268 -70t194 -191t71 -265q0 -143 -71 -264.5t-194 -192.5t-268 -71t-267 71t-192.5 192.5t-70.5 264.5zM207 508q0 -150 105.5 -256.5t254.5 -106.5t255 107t106 256q0 148 -106 254t-255 106t-254.5 -106t-105.5 -254z M334 1227l41 168l411 -135l-34 -142z" />
<glyph unicode="&#xf3;" d="M37 508q0 144 70.5 265t192.5 191t267 70t268 -70t194 -191t71 -265q0 -143 -71 -264.5t-194 -192.5t-268 -71t-267 71t-192.5 192.5t-70.5 264.5zM207 508q0 -150 105.5 -256.5t254.5 -106.5t255 107t106 256q0 148 -106 254t-255 106t-254.5 -106t-105.5 -254z M383 1260l412 135l41 -168l-418 -109z" />
<glyph unicode="&#xf4;" d="M37 508q0 144 70.5 265t192.5 191t267 70t268 -70t194 -191t71 -265q0 -143 -71 -264.5t-194 -192.5t-268 -71t-267 71t-192.5 192.5t-70.5 264.5zM207 508q0 -150 105.5 -256.5t254.5 -106.5t255 107t106 256q0 148 -106 254t-255 106t-254.5 -106t-105.5 -254z M264 1227l309 221l310 -221l-54 -105l-256 140l-256 -140z" />
<glyph unicode="&#xf5;" d="M37 508q0 144 70.5 265t192.5 191t267 70t268 -70t194 -191t71 -265q0 -143 -71 -264.5t-194 -192.5t-268 -71t-267 71t-192.5 192.5t-70.5 264.5zM207 508q0 -150 105.5 -256.5t254.5 -106.5t255 107t106 256q0 148 -106 254t-255 106t-254.5 -106t-105.5 -254z M270 1245q89 103 205 103q45 0 119.5 -24t114.5 -24q25 0 54.5 12.5t49.5 35.5l66 -78q-52 -61 -97 -86t-104 -25q-54 0 -125 24.5t-107 24.5q-28 0 -64 -16t-56 -35z" />
<glyph unicode="&#xf6;" d="M37 508q0 144 70.5 265t192.5 191t267 70t268 -70t194 -191t71 -265q0 -143 -71 -264.5t-194 -192.5t-268 -71t-267 71t-192.5 192.5t-70.5 264.5zM207 508q0 -150 105.5 -256.5t254.5 -106.5t255 107t106 256q0 148 -106 254t-255 106t-254.5 -106t-105.5 -254z M295 1169v170h170v-170h-170zM598 1169v170h170v-170h-170z" />
<glyph unicode="&#xf7;" horiz-adv-x="901" d="M41 512v162h819v-162h-819zM365 203v174h174v-174h-174zM365 809v172h174v-172h-174z" />
<glyph unicode="&#xf8;" d="M41 502q0 144 70.5 264.5t193 190t268.5 69.5q145 0 269 -70l47 58h178l-115 -144q73 -71 113.5 -166.5t40.5 -201.5t-42 -203t-113 -167.5t-170 -112.5t-208 -42q-153 0 -278 80l-47 -57h-178l114 143q-68 69 -105.5 163t-37.5 196zM213 502q0 -132 82 -223l440 544 q-79 37 -162 37q-150 0 -255 -104t-105 -254zM399 190q80 -47 174 -47q149 0 255 105.5t106 253.5q0 134 -88 235z" />
<glyph unicode="&#xf9;" horiz-adv-x="1036" d="M66 481v537h174v-467q0 -214 55.5 -306.5t210.5 -92.5q132 0 201 75.5t69 218.5v572h174v-1016h-174v84q-116 -98 -303 -98q-211 0 -309 126t-98 367zM272 1227l41 168l412 -135l-35 -142z" />
<glyph unicode="&#xfa;" horiz-adv-x="1036" d="M66 481v537h174v-467q0 -214 55.5 -306.5t210.5 -92.5q132 0 201 75.5t69 218.5v572h174v-1016h-174v84q-116 -98 -303 -98q-211 0 -309 126t-98 367zM324 1260l411 135l41 -168l-418 -109z" />
<glyph unicode="&#xfb;" horiz-adv-x="1036" d="M66 481v537h174v-467q0 -214 55.5 -306.5t210.5 -92.5q132 0 201 75.5t69 218.5v572h174v-1016h-174v84q-116 -98 -303 -98q-211 0 -309 126t-98 367zM203 1227l309 221l309 -221l-53 -105l-256 140l-256 -140z" />
<glyph unicode="&#xfc;" horiz-adv-x="1036" d="M66 481v537h174v-467q0 -214 55.5 -306.5t210.5 -92.5q132 0 201 75.5t69 218.5v572h174v-1016h-174v84q-116 -98 -303 -98q-211 0 -309 126t-98 367zM233 1169v170h170v-170h-170zM537 1169v170h170v-170h-170z" />
<glyph unicode="&#xfd;" horiz-adv-x="1003" d="M35 1018h184l279 -799l280 799h180l-376 -1061q-61 -176 -136 -256t-196 -80q-100 0 -176 33l37 162q58 -17 108 -17q72 0 119 50.5t47 134.5q0 46 -41 168zM311 1260l412 135l41 -168l-418 -109z" />
<glyph unicode="&#xfe;" horiz-adv-x="1189" d="M82 -354v1755h174v-514q72 66 165.5 102.5t194.5 36.5q145 0 267.5 -69.5t194 -190t71.5 -264.5q0 -141 -71 -262t-194 -192t-268 -71q-101 0 -195.5 38.5t-164.5 105.5v-475h-174zM256 502q0 -148 105.5 -253.5t254.5 -105.5t254 105.5t105 253.5q0 150 -104.5 254 t-254.5 104t-255 -104t-105 -254z" />
<glyph unicode="&#xff;" horiz-adv-x="1003" d="M35 1018h184l279 -799l280 799h180l-376 -1061q-61 -176 -136 -256t-196 -80q-100 0 -176 33l37 162q58 -17 108 -17q72 0 119 50.5t47 134.5q0 46 -41 168zM221 1169v170h170v-170h-170zM524 1169v170h170v-170h-170z" />
<glyph unicode="&#x152;" horiz-adv-x="2037" d="M41 502q0 144 70.5 264.5t193 190t268.5 69.5q138 0 255.5 -64.5t191.5 -173.5q71 108 188.5 173t255.5 65q148 0 271 -70t193.5 -190t70.5 -264q0 -5 -1 -20t-1 -19h-889q15 -137 117.5 -228.5t244.5 -91.5q113 0 202.5 61t133.5 163l156 -76q-66 -142 -197 -228 t-295 -86q-139 0 -258 65.5t-192 174.5q-74 -109 -192 -174.5t-255 -65.5q-146 0 -268.5 71t-193 191.5t-70.5 262.5zM213 502q0 -148 105.5 -253.5t254.5 -105.5t255 105.5t106 253.5q0 150 -105.5 254t-255.5 104t-255 -104t-105 -254zM1120 610h688q-36 112 -129.5 181 t-214.5 69t-214.5 -69t-129.5 -181z" />
<glyph unicode="&#x153;" horiz-adv-x="2037" d="M41 502q0 144 70.5 264.5t193 190t268.5 69.5q138 0 255.5 -64.5t191.5 -173.5q71 108 188.5 173t255.5 65q148 0 271 -70t193.5 -190t70.5 -264q0 -5 -1 -20t-1 -19h-889q15 -137 117.5 -228.5t244.5 -91.5q113 0 202.5 61t133.5 163l156 -76q-66 -142 -197 -228 t-295 -86q-139 0 -258 65.5t-192 174.5q-74 -109 -192 -174.5t-255 -65.5q-146 0 -268.5 71t-193 191.5t-70.5 262.5zM213 502q0 -148 105.5 -253.5t254.5 -105.5t255 105.5t106 253.5q0 150 -105.5 254t-255.5 104t-255 -104t-105 -254zM1120 610h688q-36 112 -129.5 181 t-214.5 69t-214.5 -69t-129.5 -181z" />
<glyph unicode="&#x178;" horiz-adv-x="1003" d="M35 1018h184l279 -799l280 799h180l-376 -1061q-61 -176 -136 -256t-196 -80q-100 0 -176 33l37 162q58 -17 108 -17q72 0 119 50.5t47 134.5q0 46 -41 168zM221 1169v170h170v-170h-170zM524 1169v170h170v-170h-170z" />
<glyph unicode="&#x2c6;" horiz-adv-x="851" d="M117 1130l309 222l309 -222l-53 -104l-256 139l-256 -139z" />
<glyph unicode="&#x2dc;" horiz-adv-x="794" d="M94 1149q88 102 205 102q45 0 119 -23.5t114 -23.5q26 0 55.5 12t49.5 35l65 -77q-52 -61 -96.5 -86t-103.5 -25q-54 0 -125 24.5t-107 24.5q-28 0 -64 -16t-56 -35z" />
<glyph unicode="&#x2000;" horiz-adv-x="732" />
<glyph unicode="&#x2001;" horiz-adv-x="1464" />
<glyph unicode="&#x2002;" horiz-adv-x="732" />
<glyph unicode="&#x2003;" horiz-adv-x="1464" />
<glyph unicode="&#x2004;" horiz-adv-x="488" />
<glyph unicode="&#x2005;" horiz-adv-x="366" />
<glyph unicode="&#x2006;" horiz-adv-x="244" />
<glyph unicode="&#x2007;" horiz-adv-x="244" />
<glyph unicode="&#x2008;" horiz-adv-x="183" />
<glyph unicode="&#x2009;" horiz-adv-x="292" />
<glyph unicode="&#x200a;" horiz-adv-x="81" />
<glyph unicode="&#x2010;" horiz-adv-x="786" d="M82 426v158h620v-158h-620z" />
<glyph unicode="&#x2011;" horiz-adv-x="786" d="M82 426v158h620v-158h-620z" />
<glyph unicode="&#x2012;" horiz-adv-x="786" d="M82 426v158h620v-158h-620z" />
<glyph unicode="&#x2013;" horiz-adv-x="1206" d="M82 426v158h1042v-158h-1042z" />
<glyph unicode="&#x2014;" horiz-adv-x="1826" d="M82 426v158h1663v-158h-1663z" />
<glyph unicode="&#x2018;" horiz-adv-x="339" d="M82 1096v168l61 137h78l-37 -125h72v-180h-174z" />
<glyph unicode="&#x2019;" horiz-adv-x="339" d="M82 1219v182h174v-170l-61 -135h-76l35 123h-72z" />
<glyph unicode="&#x201a;" horiz-adv-x="339" d="M82 0v182h174v-170l-61 -137h-76l35 125h-72z" />
<glyph unicode="&#x201c;" horiz-adv-x="610" d="M82 1096v168l61 137h78l-37 -125h72v-180h-174zM352 1096v168l62 137h78l-37 -125h71v-180h-174z" />
<glyph unicode="&#x201d;" horiz-adv-x="595" d="M82 1219v182h174v-170l-61 -135h-76l35 123h-72zM336 1219v182h174v-170l-61 -135h-76l35 123h-72z" />
<glyph unicode="&#x201e;" horiz-adv-x="595" d="M82 80v182h174v-170l-61 -135h-76l35 123h-72zM336 80v182h174v-170l-61 -135h-76l35 123h-72z" />
<glyph unicode="&#x2022;" horiz-adv-x="473" d="M82 362v314h309v-314h-309z" />
<glyph unicode="&#x2026;" horiz-adv-x="1017" d="M82 0v186h174v-186h-174zM422 0v186h176v-186h-176zM760 0v186h176v-186h-176z" />
<glyph unicode="&#x202f;" horiz-adv-x="292" />
<glyph unicode="&#x2039;" horiz-adv-x="651" d="M94 522l342 525h162l-342 -525l342 -522h-162z" />
<glyph unicode="&#x203a;" horiz-adv-x="651" d="M53 0l342 522l-342 525h162l342 -525l-342 -522h-162z" />
<glyph unicode="&#x205f;" horiz-adv-x="366" />
<glyph unicode="&#x20ac;" horiz-adv-x="1120" d="M41 408v127h166v124h-166v127h168q18 198 144.5 324.5t336.5 126.5q127 0 227.5 -54t163.5 -155l-139 -86q-80 133 -252 133q-133 0 -216 -80.5t-101 -208.5h411v-127h-415v-124h415v-127h-409q22 -119 108.5 -194t206.5 -75q172 0 252 133l139 -86q-63 -101 -163.5 -155 t-227.5 -54q-193 0 -323.5 121t-155.5 310h-170z" />
<glyph unicode="&#x2122;" horiz-adv-x="1806" d="M25 1063v143h88v195h163v-195h168v-143h-168v-293q0 -84 37.5 -114t153.5 -31l12 -166h-24q-62 0 -111 7.5t-93.5 27t-74 51t-46.5 82t-17 116.5v320h-88zM590 465v741h162v-67q72 75 200 75q146 0 211 -104q107 104 267 104q270 0 270 -342v-407h-172v332 q0 141 -28.5 202.5t-115.5 61.5q-73 0 -116 -46.5t-43 -131.5v-418h-160v332q0 141 -31 202.5t-125 61.5q-74 0 -115.5 -49.5t-41.5 -139.5v-407h-162z" />
<glyph unicode="&#xe000;" horiz-adv-x="1013" d="M0 0v1014h1014v-1014h-1014z" />
<glyph unicode="&#xfb01;" horiz-adv-x="710" d="M49 745v164h103v119q0 402 452 385l-12 -170q-143 0 -203.5 -46.5t-60.5 -168.5v-119h219v-164h-219v-745h-176v745h-103zM780 0v1018h174v-1018h-174zM780 1176v176h174v-176h-174z" />
<glyph unicode="&#xfb02;" horiz-adv-x="710" d="M49 745v164h103v119q0 402 452 385l-12 -170q-143 0 -203.5 -46.5t-60.5 -168.5v-119h219v-164h-219v-745h-176v745h-103zM780 0v1401h174v-1401h-174z" />
</font>
</defs>
</svg>
